AdventPro-reg.ufo
<glyph name="quotedbl" format="2">
  <advance width="267" height="962"/>
  <unicode hex="0022"/>
  <outline>
    <contour>
      <point x="167" y="703" type="line"/>
      <point x="167" y="750"/>
      <point x="235" y="750"/>
      <point x="235" y="703" type="curve"/>
      <point x="221" y="588" type="line"/>
      <point x="181" y="588" type="line"/>
    </contour>
    <contour>
      <point x="31" y="703" type="line"/>
      <point x="31" y="750"/>
      <point x="100" y="750"/>
      <point x="100" y="703" type="curve"/>
      <point x="84" y="588" type="line"/>
      <point x="45" y="588" type="line"/>
    </contour>
  </outline>
</glyph>
<glyph name="parenleft" format="1">
  <advance width="182" height="962"/>
  <unicode hex="0028"/>
  <outline>
    <contour>
      <point x="165" y="780" type="line"/>
      <point x="119" y="748"/>
      <point x="98" y="698"/>
      <point x="98" y="637" type="curve" smooth="yes"/>
      <point x="98" y="444"/>
      <point x="98" y="255"/>
      <point x="98" y="62" type="curve" smooth="yes"/>
      <point x="98" y="-1"/>
      <point x="119" y="-49"/>
      <point x="165" y="-81" type="curve"/>
      <point x="147" y="-120" type="line"/>
      <point x="96" y="-82"/>
      <point x="41" y="-58"/>
      <point x="41" y="70" type="curve" smooth="yes"/>
      <point x="41" y="627" type="line" smooth="yes"/>
      <point x="41" y="728"/>
      <point x="76" y="779"/>
      <point x="147" y="818" type="curve"/>
    </contour>
  </outline>
</glyph>
<glyph name="parenright" format="2">
  <advance width="182"/>
  <unicode hex="0029"/>
  <outline>
    <contour>
      <point x="18" y="780" type="line"/>
      <point x="64" y="748"/>
      <point x="85" y="698"/>
      <point x="85" y="637" type="curve" smooth="yes"/>
      <point x="85" y="62" type="line" smooth="yes"/>
      <point x="85" y="-1"/>
      <point x="64" y="-49"/>
      <point x="18" y="-81" type="curve"/>
      <point x="36" y="-120" type="line"/>
      <point x="87" y="-82"/>
      <point x="142" y="-58"/>
      <point x="142" y="70" type="curve" smooth="yes"/>
      <point x="142" y="627" type="line" smooth="yes"/>
      <point x="142" y="728"/>
      <point x="107" y="779"/>
      <point x="36" y="818" type="curve"/>
    </contour>
  </outline>
</glyph>
<glyph name="one" format="2">
  <advance width="236" height="962"/>
  <unicode hex="0031"/>
  <outline>
    <contour>
      <point x="13" y="622" type="line"/>
      <point x="11" y="622"/>
      <point x="95" y="644"/>
      <point x="139" y="700" type="curve"/>
      <point x="193" y="700" type="line"/>
      <point x="193" y="0" type="line"/>
      <point x="140" y="0" type="line"/>
      <point x="140" y="634" type="line"/>
      <point x="116" y="616"/>
      <point x="61" y="587"/>
      <point x="27" y="583" type="curve"/>
    </contour>
  </outline>
</glyph>
<glyph name="two" format="2">
  <advance width="413" height="962"/>
  <unicode hex="0032"/>
  <outline>
    <contour>
      <point x="42" y="590" type="line"/>
      <point x="73" y="673"/>
      <point x="141" y="709"/>
      <point x="208" y="710" type="curve" smooth="yes"/>
      <point x="293" y="712"/>
      <point x="378" y="652"/>
      <point x="378" y="551" type="curve" smooth="yes"/>
      <point x="378" y="511"/>
      <point x="367" y="465"/>
      <point x="323" y="395" type="curve" smooth="yes"/>
      <point x="95" y="53" type="line"/>
      <point x="379" y="53" type="line"/>
      <point x="379" y="0" type="line"/>
      <point x="29" y="0" type="line"/>
      <point x="29" y="53" type="line"/>
      <point x="275" y="426" type="line" smooth="yes"/>
      <point x="314" y="489"/>
      <point x="319" y="510"/>
      <point x="319" y="541" type="curve" smooth="yes"/>
      <point x="319" y="614"/>
      <point x="264" y="656"/>
      <point x="207" y="656" type="curve" smooth="yes"/>
      <point x="161" y="656"/>
      <point x="117" y="630"/>
      <point x="95" y="571" type="curve"/>
    </contour>
  </outline>
</glyph>
<glyph name="eight" format="2">
  <advance width="483" height="962"/>
  <unicode hex="0038"/>
  <outline>
    <contour>
      <point x="241" y="709" type="curve" smooth="yes"/>
      <point x="341" y="709"/>
      <point x="416" y="633"/>
      <point x="416" y="533" type="curve" smooth="yes"/>
      <point x="416" y="469"/>
      <point x="392" y="424"/>
      <point x="340" y="388" type="curve"/>
      <point x="408" y="349"/>
      <point x="454" y="281"/>
      <point x="454" y="201" type="curve" smooth="yes"/>
      <point x="454" y="82"/>
      <point x="359" y="-12"/>
      <point x="240" y="-12" type="curve" smooth="yes"/>
      <point x="121" y="-12"/>
      <point x="27" y="82"/>
      <point x="27" y="201" type="curve" smooth="yes"/>
      <point x="27" y="278"/>
      <point x="72" y="354"/>
      <point x="141" y="389" type="curve"/>
      <point x="93" y="419"/>
      <point x="66" y="478"/>
      <point x="66" y="533" type="curve" smooth="yes"/>
      <point x="66" y="631"/>
      <point x="143" y="709"/>
    </contour>
    <contour>
      <point x="240" y="412" type="curve" smooth="yes"/>
      <point x="308" y="412"/>
      <point x="361" y="467"/>
      <point x="361" y="534" type="curve" smooth="yes"/>
      <point x="361" y="601"/>
      <point x="307" y="656"/>
      <point x="240" y="656" type="curve" smooth="yes"/>
      <point x="174" y="656"/>
      <point x="119" y="601"/>
      <point x="119" y="534" type="curve" smooth="yes"/>
      <point x="119" y="469"/>
      <point x="174" y="412"/>
    </contour>
    <contour>
      <point x="240" y="44" type="curve" smooth="yes"/>
      <point x="328" y="44"/>
      <point x="397" y="115"/>
      <point x="397" y="201" type="curve" smooth="yes"/>
      <point x="397" y="289"/>
      <point x="329" y="357"/>
      <point x="240" y="357" type="curve" smooth="yes"/>
      <point x="154" y="357"/>
      <point x="83" y="287"/>
      <point x="83" y="201" type="curve" smooth="yes"/>
      <point x="83" y="115"/>
      <point x="154" y="44"/>
    </contour>
  </outline>
</glyph>
<glyph name="colon" format="2">
  <advance width="144"/>
  <unicode hex="003A"/>
  <outline>
    <contour>
      <point x="104" y="144" type="curve" smooth="yes"/>
      <point x="104" y="125"/>
      <point x="88" y="111"/>
      <point x="70" y="111" type="curve" smooth="yes"/>
      <point x="52" y="111"/>
      <point x="36" y="125"/>
      <point x="36" y="144" type="curve" smooth="yes"/>
      <point x="36" y="162"/>
      <point x="52" y="177"/>
      <point x="70" y="177" type="curve" smooth="yes"/>
      <point x="88" y="177"/>
      <point x="104" y="162"/>
    </contour>
    <contour>
      <point x="104" y="385" type="curve" smooth="yes"/>
      <point x="104" y="367"/>
      <point x="88" y="352"/>
      <point x="70" y="352" type="curve" smooth="yes"/>
      <point x="52" y="352"/>
      <point x="36" y="367"/>
      <point x="36" y="385" type="curve" smooth="yes"/>
      <point x="36" y="404"/>
      <point x="52" y="418"/>
      <point x="70" y="418" type="curve" smooth="yes"/>
      <point x="88" y="418"/>
      <point x="104" y="404"/>
    </contour>
  </outline>
</glyph>
<glyph name="question" format="2">
  <advance width="405" height="962"/>
  <unicode hex="003F"/>
  <outline>
    <contour>
      <point x="25" y="532" type="line"/>
      <point x="25" y="654"/>
      <point x="116" y="709"/>
      <point x="204" y="709" type="curve" smooth="yes"/>
      <point x="292" y="709"/>
      <point x="376" y="644"/>
      <point x="376" y="538" type="curve" smooth="yes"/>
      <point x="376" y="470"/>
      <point x="336" y="415"/>
      <point x="294" y="366" type="curve" smooth="yes"/>
      <point x="254" y="322"/>
      <point x="217" y="290"/>
      <point x="217" y="207" type="curve" smooth="yes"/>
      <point x="217" y="120" type="line"/>
      <point x="166" y="120" type="line"/>
      <point x="166" y="212" type="line" smooth="yes"/>
      <point x="166" y="301"/>
      <point x="205" y="346"/>
      <point x="243" y="389" type="curve" smooth="yes"/>
      <point x="281" y="433"/>
      <point x="321" y="469"/>
      <point x="321" y="535" type="curve" smooth="yes"/>
      <point x="321" y="615"/>
      <point x="262" y="654"/>
      <point x="204" y="656" type="curve" smooth="yes"/>
      <point x="143" y="658"/>
      <point x="82" y="618"/>
      <point x="82" y="532" type="curve"/>
    </contour>
    <contour>
      <point x="193" y="57" type="curve" smooth="yes"/>
      <point x="210" y="57"/>
      <point x="226" y="43"/>
      <point x="226" y="24" type="curve" smooth="yes"/>
      <point x="226" y="6"/>
      <point x="210" y="-9"/>
      <point x="193" y="-9" type="curve" smooth="yes"/>
      <point x="174" y="-9"/>
      <point x="158" y="6"/>
      <point x="158" y="24" type="curve" smooth="yes"/>
      <point x="158" y="43"/>
      <point x="174" y="57"/>
    </contour>
  </outline>
</glyph>
<glyph name="at" format="1">
  <advance width="719" height="962"/>
  <unicode hex="0040"/>
  <outline>
    <contour>
      <point x="690" y="452" type="line"/>
      <point x="667" y="441"/>
      <point x="657" y="419"/>
      <point x="657" y="381" type="curve" smooth="yes"/>
      <point x="657" y="171" type="line" smooth="yes"/>
      <point x="657" y="2"/>
      <point x="504" y="-66"/>
      <point x="341" y="-66" type="curve" smooth="yes"/>
      <point x="184" y="-66"/>
      <point x="32" y="11"/>
      <point x="32" y="184" type="curve" smooth="yes"/>
      <point x="32" y="339" type="line" smooth="yes"/>
      <point x="32" y="479"/>
      <point x="123" y="579"/>
      <point x="285" y="579" type="curve" smooth="yes"/>
      <point x="429" y="579"/>
      <point x="496" y="517"/>
      <point x="512" y="443" type="curve"/>
      <point x="579" y="443" type="line"/>
      <point x="566" y="389" type="line"/>
      <point x="516" y="389" type="line"/>
      <point x="516" y="69" type="line"/>
      <point x="517" y="69"/>
      <point x="395" y="62"/>
      <point x="349" y="61" type="curve" smooth="yes"/>
      <point x="254" y="58"/>
      <point x="156" y="84"/>
      <point x="156" y="234" type="curve" smooth="yes"/>
      <point x="156" y="289" type="line" smooth="yes"/>
      <point x="156" y="406"/>
      <point x="223" y="443"/>
      <point x="297" y="443" type="curve" smooth="yes"/>
      <point x="464" y="443" type="line"/>
      <point x="446" y="498"/>
      <point x="382" y="531"/>
      <point x="288" y="531" type="curve" smooth="yes"/>
      <point x="176" y="531"/>
      <point x="92" y="467"/>
      <point x="92" y="342" type="curve" smooth="yes"/>
      <point x="92" y="190" type="line" smooth="yes"/>
      <point x="92" y="44"/>
      <point x="197" y="-11"/>
      <point x="349" y="-11" type="curve" smooth="yes"/>
      <point x="476" y="-11"/>
      <point x="601" y="35"/>
      <point x="601" y="163" type="curve" smooth="yes"/>
      <point x="601" y="364" type="line" smooth="yes"/>
      <point x="601" y="434"/>
      <point x="618" y="476"/>
      <point x="675" y="493" type="curve"/>
    </contour>
    <contour>
      <point x="294" y="389" type="line" smooth="yes"/>
      <point x="264" y="389"/>
      <point x="209" y="384"/>
      <point x="209" y="286" type="curve" smooth="yes"/>
      <point x="209" y="228" type="line" smooth="yes"/>
      <point x="209" y="153"/>
      <point x="249" y="112"/>
      <point x="329" y="112" type="curve" smooth="yes"/>
      <point x="399" y="112"/>
      <point x="465" y="121"/>
      <point x="465" y="120" type="curve"/>
      <point x="465" y="389" type="line"/>
    </contour>
  </outline>
</glyph>
<glyph name="A" format="2">
  <advance width="547"/>
  <unicode hex="0041"/>
  <outline>
    <contour>
      <point x="527" y="0" type="line"/>
      <point x="468" y="0" type="line"/>
      <point x="387" y="245" type="line"/>
      <point x="160" y="245" type="line"/>
      <point x="81" y="0" type="line"/>
      <point x="21" y="0" type="line"/>
      <point x="246" y="700" type="line"/>
      <point x="299" y="700" type="line"/>
    </contour>
    <contour>
      <point x="175" y="300" type="line"/>
      <point x="372" y="300" type="line"/>
      <point x="272" y="614" type="line"/>
    </contour>
  </outline>
</glyph>
<glyph name="B" format="2">
  <advance width="505" height="962"/>
  <unicode hex="0042"/>
  <outline>
    <contour>
      <point x="262" y="700" type="line" smooth="yes"/>
      <point x="374" y="700"/>
      <point x="439" y="645"/>
      <point x="439" y="530" type="curve" smooth="yes"/>
      <point x="439" y="470"/>
      <point x="415" y="422"/>
      <point x="371" y="393" type="curve"/>
      <point x="429" y="367"/>
      <point x="476" y="305"/>
      <point x="476" y="209" type="curve" smooth="yes"/>
      <point x="476" y="78"/>
      <point x="405" y="0"/>
      <point x="272" y="0" type="curve" smooth="yes"/>
      <point x="41" y="0" type="line"/>
      <point x="41" y="700" type="line"/>
    </contour>
    <contour>
      <point x="261" y="412" type="line" smooth="yes"/>
      <point x="342" y="412"/>
      <point x="380" y="459"/>
      <point x="380" y="530" type="curve" smooth="yes"/>
      <point x="380" y="608"/>
      <point x="338" y="647"/>
      <point x="254" y="647" type="curve" smooth="yes"/>
      <point x="98" y="647" type="line"/>
      <point x="98" y="412" type="line"/>
    </contour>
    <contour>
      <point x="270" y="53" type="line" smooth="yes"/>
      <point x="366" y="53"/>
      <point x="415" y="106"/>
      <point x="415" y="213" type="curve" smooth="yes"/>
      <point x="415" y="291"/>
      <point x="370" y="357"/>
      <point x="286" y="357" type="curve" smooth="yes"/>
      <point x="98" y="357" type="line"/>
      <point x="98" y="53" type="line"/>
    </contour>
  </outline>
</glyph>
<glyph name="E" format="1">
  <advance width="406" height="962"/>
  <unicode hex="0045"/>
  <outline>
    <contour>
      <point x="41" y="0" type="line"/>
      <point x="41" y="700" type="line"/>
      <point x="375" y="700" type="line"/>
      <point x="375" y="648" type="line"/>
      <point x="98" y="648" type="line"/>
      <point x="98" y="412" type="line"/>
      <point x="288" y="412" type="line"/>
      <point x="270" y="357" type="line"/>
      <point x="98" y="357" type="line"/>
      <point x="98" y="50" type="line"/>
      <point x="373" y="50" type="line"/>
      <point x="373" y="0" type="line"/>
    </contour>
  </outline>
</glyph>
<glyph name="J" format="1">
  <advance width="207" height="962"/>
  <unicode hex="004A"/>
  <outline>
    <contour>
      <point x="166" y="119" type="line" smooth="yes"/>
      <point x="166" y="37"/>
      <point x="133" y="-37"/>
      <point x="40" y="-37" type="curve"/>
      <point x="27" y="0" type="line"/>
      <point x="71" y="0"/>
      <point x="109" y="35"/>
      <point x="109" y="114" type="curve" smooth="yes"/>
      <point x="109" y="649" type="line"/>
      <point x="42" y="651" type="line"/>
      <point x="42" y="700" type="line"/>
      <point x="166" y="700" type="line"/>
    </contour>
  </outline>
</glyph>
<glyph name="N" format="2">
  <advance width="577"/>
  <unicode hex="004E"/>
  <outline>
    <contour>
      <point x="534" y="700" type="line"/>
      <point x="534" y="0" type="line"/>
      <point x="478" y="0" type="line"/>
      <point x="98" y="597" type="line"/>
      <point x="98" y="0" type="line"/>
      <point x="41" y="0" type="line"/>
      <point x="41" y="700" type="line"/>
      <point x="98" y="700" type="line"/>
      <point x="478" y="103" type="line"/>
      <point x="478" y="700" type="line"/>
    </contour>
  </outline>
</glyph>
<glyph name="O" format="1">
  <advance width="492" height="962"/>
  <unicode hex="004F"/>
  <outline>
    <contour>
      <point x="34" y="508" type="line" smooth="yes"/>
      <point x="34" y="644"/>
      <point x="115" y="716"/>
      <point x="247" y="716" type="curve" smooth="yes"/>
      <point x="379" y="716"/>
      <point x="456" y="638"/>
      <point x="456" y="507" type="curve" smooth="yes"/>
      <point x="456" y="186" type="line" smooth="yes"/>
      <point x="456" y="64"/>
      <point x="370" y="-11"/>
      <point x="246" y="-11" type="curve" smooth="yes"/>
      <point x="128" y="-11"/>
      <point x="34" y="56"/>
      <point x="34" y="186" type="curve" smooth="yes"/>
    </contour>
    <contour>
      <point x="91" y="187" type="line" smooth="yes"/>
      <point x="91" y="91"/>
      <point x="156" y="42"/>
      <point x="244" y="42" type="curve" smooth="yes"/>
      <point x="336" y="42"/>
      <point x="400" y="88"/>
      <point x="400" y="187" type="curve" smooth="yes"/>
      <point x="400" y="517" type="line" smooth="yes"/>
      <point x="400" y="614"/>
      <point x="339" y="663"/>
      <point x="244" y="663" type="curve" smooth="yes"/>
      <point x="152" y="663"/>
      <point x="91" y="614"/>
      <point x="91" y="517" type="curve" smooth="yes"/>
    </contour>
  </outline>
</glyph>
<glyph name="Q" format="1">
  <advance width="492" height="962"/>
  <unicode hex="0051"/>
  <outline>
    <component base="O"/>
    <contour>
      <point x="271" y="50" type="line" smooth="yes"/>
      <point x="271" y="-33"/>
      <point x="316" y="-61"/>
      <point x="396" y="-61" type="curve"/>
      <point x="390" y="-108" type="line"/>
      <point x="274" y="-108"/>
      <point x="215" y="-62"/>
      <point x="215" y="51" type="curve" smooth="yes"/>
      <point x="215" y="174" type="line"/>
      <point x="271" y="174" type="line"/>
    </contour>
  </outline>
</glyph>
<glyph name="R" format="2">
  <advance width="510"/>
  <unicode hex="0052"/>
  <outline>
    <contour>
      <point x="277" y="700" type="line" smooth="yes"/>
      <point x="404" y="700"/>
      <point x="476" y="645"/>
      <point x="476" y="474" type="curve" smooth="yes"/>
      <point x="476" y="360"/>
      <point x="446" y="296"/>
      <point x="383" y="265" type="curve"/>
      <point x="480" y="0" type="line"/>
      <point x="423" y="0" type="line"/>
      <point x="332" y="250" type="line"/>
      <point x="316" y="246"/>
      <point x="297" y="245"/>
      <point x="277" y="245" type="curve" smooth="yes"/>
      <point x="98" y="245" type="line"/>
      <point x="98" y="0" type="line"/>
      <point x="41" y="0" type="line"/>
      <point x="41" y="700" type="line"/>
    </contour>
    <contour>
      <point x="282" y="300" type="line" smooth="yes"/>
      <point x="358" y="300"/>
      <point x="419" y="321"/>
      <point x="419" y="474" type="curve" smooth="yes"/>
      <point x="419" y="615"/>
      <point x="360" y="647"/>
      <point x="282" y="647" type="curve" smooth="yes"/>
      <point x="98" y="647" type="line"/>
      <point x="98" y="300" type="line"/>
    </contour>
  </outline>
</glyph>
<glyph name="W" format="1">
  <advance width="733" height="962"/>
  <unicode hex="0057"/>
  <outline>
    <contour>
      <point x="405" y="700" type="line"/>
      <point x="513" y="69" type="line"/>
      <point x="654" y="700" type="line"/>
      <point x="713" y="700" type="line"/>
      <point x="550" y="0" type="line"/>
      <point x="466" y="0" type="line"/>
      <point x="367" y="599" type="line"/>
      <point x="268" y="0" type="line"/>
      <point x="183" y="0" type="line"/>
      <point x="17" y="700" type="line"/>
      <point x="78" y="700" type="line"/>
      <point x="220" y="69" type="line"/>
      <point x="327" y="700" type="line"/>
    </contour>
  </outline>
</glyph>
<glyph name="bracketleft" format="1">
  <advance width="223" height="962"/>
  <unicode hex="005B"/>
  <outline>
    <contour>
      <point x="99" y="762" type="line"/>
      <point x="99" y="-59" type="line"/>
      <point x="204" y="-69" type="line"/>
      <point x="204" y="-114" type="line"/>
      <point x="42" y="-114" type="line"/>
      <point x="42" y="818" type="line"/>
      <point x="204" y="818" type="line"/>
      <point x="204" y="772" type="line"/>
    </contour>
  </outline>
</glyph>
<glyph name="backslash" format="2">
  <advance width="414" height="962"/>
  <unicode hex="005C"/>
  <outline>
    <contour>
      <point x="336" y="-114" type="line"/>
      <point x="16" y="818" type="line"/>
      <point x="72" y="818" type="line"/>
      <point x="397" y="-114" type="line"/>
    </contour>
  </outline>
</glyph>
<glyph name="bracketright" format="2">
  <advance width="225" height="962"/>
  <unicode hex="005D"/>
  <outline>
    <contour>
      <point x="20" y="-114" type="line"/>
      <point x="20" y="-69" type="line"/>
      <point x="126" y="-59" type="line"/>
      <point x="126" y="762" type="line"/>
      <point x="20" y="772" type="line"/>
      <point x="20" y="818" type="line"/>
      <point x="182" y="818" type="line"/>
      <point x="182" y="-114" type="line"/>
    </contour>
  </outline>
</glyph>
<glyph name="b" format="2">
  <advance width="457" height="962"/>
  <unicode hex="0062"/>
  <outline>
    <contour>
      <point x="98" y="473" type="line"/>
      <point x="143" y="493"/>
      <point x="194" y="510"/>
      <point x="260" y="510" type="curve" smooth="yes"/>
      <point x="340" y="510"/>
      <point x="426" y="472"/>
      <point x="426" y="359" type="curve" smooth="yes"/>
      <point x="426" y="169" type="line" smooth="yes"/>
      <point x="426" y="21"/>
      <point x="328" y="-14"/>
      <point x="199" y="-10" type="curve" smooth="yes"/>
      <point x="152" y="-9"/>
      <point x="39" y="0"/>
      <point x="41" y="0" type="curve"/>
      <point x="41" y="700" type="line"/>
      <point x="98" y="700" type="line"/>
    </contour>
    <contour>
      <point x="98" y="45" type="line"/>
      <point x="98" y="46"/>
      <point x="139" y="40"/>
      <point x="204" y="38" type="curve" smooth="yes"/>
      <point x="338" y="34"/>
      <point x="371" y="80"/>
      <point x="371" y="176" type="curve" smooth="yes"/>
      <point x="371" y="355" type="line" smooth="yes"/>
      <point x="371" y="448"/>
      <point x="301" y="463"/>
      <point x="264" y="463" type="curve" smooth="yes"/>
      <point x="200" y="463"/>
      <point x="152" y="446"/>
      <point x="98" y="423" type="curve"/>
    </contour>
  </outline>
</glyph>
<glyph name="h" format="1">
  <advance width="444" height="962"/>
  <unicode hex="0068"/>
  <outline>
    <contour>
      <point x="98" y="467" type="line"/>
      <point x="136" y="493"/>
      <point x="187" y="510"/>
      <point x="237" y="510" type="curve" smooth="yes"/>
      <point x="348" y="510"/>
      <point x="411" y="452"/>
      <point x="411" y="346" type="curve" smooth="yes"/>
      <point x="411" y="0" type="line"/>
      <point x="355" y="0" type="line"/>
      <point x="355" y="343" type="line" smooth="yes"/>
      <point x="355" y="434"/>
      <point x="290" y="460"/>
      <point x="226" y="460" type="curve" smooth="yes"/>
      <point x="180" y="460"/>
      <point x="139" y="448"/>
      <point x="98" y="425" type="curve"/>
      <point x="98" y="0" type="line"/>
      <point x="41" y="0" type="line"/>
      <point x="41" y="700" type="line"/>
      <point x="98" y="700" type="line"/>
    </contour>
  </outline>
</glyph>
<glyph name="i" format="1">
  <advance width="133" height="962"/>
  <unicode hex="0069"/>
  <outline>
    <contour>
      <point x="38" y="0" type="line"/>
      <point x="38" y="501" type="line"/>
      <point x="95" y="501" type="line"/>
      <point x="95" y="0" type="line"/>
    </contour>
    <contour>
      <point x="67" y="710" type="curve" smooth="yes"/>
      <point x="85" y="710"/>
      <point x="101" y="695"/>
      <point x="101" y="676" type="curve" smooth="yes"/>
      <point x="101" y="659"/>
      <point x="85" y="643"/>
      <point x="67" y="643" type="curve" smooth="yes"/>
      <point x="49" y="643"/>
      <point x="33" y="659"/>
      <point x="33" y="676" type="curve" smooth="yes"/>
      <point x="33" y="695"/>
      <point x="49" y="710"/>
    </contour>
  </outline>
</glyph>
<glyph name="k" format="2">
  <advance width="427" height="962"/>
  <unicode hex="006B"/>
  <outline>
    <contour>
      <point x="190" y="352" type="line"/>
      <point x="408" y="0" type="line"/>
      <point x="341" y="0" type="line"/>
      <point x="150" y="317" type="line"/>
      <point x="98" y="273" type="line"/>
      <point x="98" y="0" type="line"/>
      <point x="41" y="0" type="line"/>
      <point x="41" y="700" type="line"/>
      <point x="98" y="700" type="line"/>
      <point x="98" y="335" type="line"/>
      <point x="298" y="520" type="line"/>
      <point x="338" y="482" type="line"/>
    </contour>
  </outline>
</glyph>
<glyph name="o" format="1">
  <advance width="430" height="962"/>
  <unicode hex="006F"/>
  <outline>
    <contour>
      <point x="399" y="185" type="line" smooth="yes"/>
      <point x="399" y="68"/>
      <point x="339" y="-10"/>
      <point x="218" y="-10" type="curve" smooth="yes"/>
      <point x="93" y="-10"/>
      <point x="29" y="77"/>
      <point x="29" y="185" type="curve" smooth="yes"/>
      <point x="29" y="316" type="line" smooth="yes"/>
      <point x="29" y="443"/>
      <point x="97" y="512"/>
      <point x="216" y="512" type="curve" smooth="yes"/>
      <point x="335" y="512"/>
      <point x="399" y="438"/>
      <point x="399" y="316" type="curve" smooth="yes"/>
    </contour>
    <contour>
      <point x="343" y="316" type="line" smooth="yes"/>
      <point x="343" y="412"/>
      <point x="305" y="462"/>
      <point x="218" y="462" type="curve" smooth="yes"/>
      <point x="130" y="462"/>
      <point x="85" y="412"/>
      <point x="85" y="316" type="curve" smooth="yes"/>
      <point x="85" y="175" type="line" smooth="yes"/>
      <point x="85" y="95"/>
      <point x="137" y="40"/>
      <point x="218" y="40" type="curve" smooth="yes"/>
      <point x="302" y="40"/>
      <point x="343" y="93"/>
      <point x="343" y="175" type="curve" smooth="yes"/>
    </contour>
  </outline>
</glyph>
<glyph name="q" format="2">
  <advance width="441" height="962"/>
  <unicode hex="0071"/>
  <outline>
    <contour>
      <point x="344" y="62" type="line"/>
      <point x="322" y="21"/>
      <point x="263" y="-11"/>
      <point x="203" y="-11" type="curve" smooth="yes"/>
      <point x="91" y="-11"/>
      <point x="31" y="55"/>
      <point x="31" y="177" type="curve" smooth="yes"/>
      <point x="31" y="346" type="line" smooth="yes"/>
      <point x="31" y="453"/>
      <point x="92" y="516"/>
      <point x="202" y="511" type="curve" smooth="yes"/>
      <point x="250" y="509"/>
      <point x="300" y="490"/>
      <point x="344" y="454" type="curve"/>
      <point x="344" y="500" type="line"/>
      <point x="401" y="500" type="line"/>
      <point x="401" y="-212" type="line"/>
      <point x="344" y="-189" type="line"/>
    </contour>
    <contour>
      <point x="344" y="394" type="line"/>
      <point x="316" y="436"/>
      <point x="257" y="457"/>
      <point x="214" y="461" type="curve" smooth="yes"/>
      <point x="152" y="465"/>
      <point x="87" y="434"/>
      <point x="87" y="344" type="curve" smooth="yes"/>
      <point x="87" y="168" type="line" smooth="yes"/>
      <point x="87" y="85"/>
      <point x="130" y="41"/>
      <point x="206" y="41" type="curve" smooth="yes"/>
      <point x="283" y="41"/>
      <point x="344" y="88"/>
      <point x="344" y="174" type="curve" smooth="yes"/>
    </contour>
  </outline>
</glyph>
<glyph name="r" format="1">
  <advance width="333" height="962"/>
  <unicode hex="0072"/>
  <outline>
    <contour>
      <point x="306" y="461" type="line"/>
      <point x="306" y="461"/>
      <point x="286" y="463"/>
      <point x="264" y="462" type="curve" smooth="yes"/>
      <point x="208" y="460"/>
      <point x="131" y="434"/>
      <point x="95" y="409" type="curve"/>
      <point x="95" y="0" type="line"/>
      <point x="38" y="0" type="line"/>
      <point x="38" y="501" type="line"/>
      <point x="95" y="501" type="line"/>
      <point x="95" y="468" type="line"/>
      <point x="144" y="490"/>
      <point x="193" y="508"/>
      <point x="265" y="512" type="curve" smooth="yes"/>
      <point x="289" y="513"/>
      <point x="310" y="509"/>
      <point x="310" y="509" type="curve"/>
    </contour>
  </outline>
</glyph>
<glyph name="t" format="1">
  <advance width="241" height="962"/>
  <unicode hex="0074"/>
  <outline>
    <contour>
      <point x="95" y="132" type="line" smooth="yes"/>
      <point x="95" y="79"/>
      <point x="117" y="45"/>
      <point x="161" y="30" type="curve"/>
      <point x="144" y="-13" type="line"/>
      <point x="71" y="9"/>
      <point x="39" y="54"/>
      <point x="39" y="132" type="curve" smooth="yes"/>
      <point x="39" y="700" type="line"/>
      <point x="95" y="700" type="line"/>
      <point x="95" y="500" type="line"/>
      <point x="216" y="500" type="line"/>
      <point x="192" y="448" type="line"/>
      <point x="95" y="448" type="line"/>
    </contour>
  </outline>
</glyph>
<glyph name="u" format="2">
  <advance width="445" height="962"/>
  <unicode hex="0075"/>
  <outline>
    <contour>
      <point x="349" y="48" type="line"/>
      <point x="316" y="10"/>
      <point x="260" y="-10"/>
      <point x="210" y="-10" type="curve" smooth="yes"/>
      <point x="99" y="-10"/>
      <point x="35" y="43"/>
      <point x="35" y="157" type="curve" smooth="yes"/>
      <point x="35" y="501" type="line"/>
      <point x="92" y="501" type="line"/>
      <point x="92" y="171" type="line" smooth="yes"/>
      <point x="92" y="79"/>
      <point x="136" y="44"/>
      <point x="212" y="44" type="curve" smooth="yes"/>
      <point x="292" y="44"/>
      <point x="349" y="102"/>
      <point x="349" y="173" type="curve" smooth="yes"/>
      <point x="349" y="501" type="line"/>
      <point x="405" y="501" type="line"/>
      <point x="405" y="0" type="line"/>
      <point x="349" y="0" type="line"/>
    </contour>
  </outline>
</glyph>
<glyph name="w" format="2">
  <advance width="708"/>
  <unicode hex="0077"/>
  <outline>
    <contour>
      <point x="381" y="499" type="line"/>
      <point x="491" y="57" type="line"/>
      <point x="625" y="499" type="line"/>
      <point x="684" y="499" type="line"/>
      <point x="528" y="0" type="line"/>
      <point x="451" y="0" type="line"/>
      <point x="351" y="405" type="line"/>
      <point x="249" y="0" type="line"/>
      <point x="171" y="0" type="line"/>
      <point x="19" y="499" type="line"/>
      <point x="77" y="499" type="line"/>
      <point x="212" y="57" type="line"/>
      <point x="324" y="499" type="line"/>
    </contour>
  </outline>
</glyph>
<glyph name="x" format="2">
  <advance width="437"/>
  <unicode hex="0078"/>
  <outline>
    <contour>
      <point x="220" y="300" type="line"/>
      <point x="346" y="500" type="line"/>
      <point x="408" y="500" type="line"/>
      <point x="252" y="249" type="line"/>
      <point x="408" y="0" type="line"/>
      <point x="342" y="0" type="line"/>
      <point x="220" y="198" type="line"/>
      <point x="97" y="0" type="line"/>
      <point x="30" y="0" type="line"/>
      <point x="187" y="249" type="line"/>
      <point x="30" y="500" type="line"/>
      <point x="95" y="500" type="line"/>
    </contour>
  </outline>
</glyph>
<glyph name="z" format="2">
  <advance width="428"/>
  <unicode hex="007A"/>
  <outline>
    <contour>
      <point x="378" y="501" type="line"/>
      <point x="378" y="452" type="line"/>
      <point x="101" y="51" type="line"/>
      <point x="399" y="50" type="line"/>
      <point x="399" y="0" type="line"/>
      <point x="31" y="0" type="line"/>
      <point x="31" y="50" type="line"/>
      <point x="306" y="451" type="line"/>
      <point x="40" y="452" type="line"/>
      <point x="40" y="501" type="line"/>
    </contour>
  </outline>
</glyph>
<glyph name="braceleft" format="2">
  <advance width="258" height="962"/>
  <unicode hex="007B"/>
  <outline>
    <contour>
      <point x="163" y="517" type="line" smooth="yes"/>
      <point x="163" y="489"/>
      <point x="159" y="461"/>
      <point x="153" y="433" type="curve" smooth="yes"/>
      <point x="146" y="406"/>
      <point x="127" y="379"/>
      <point x="96" y="353" type="curve"/>
      <point x="127" y="327"/>
      <point x="146" y="301"/>
      <point x="153" y="273" type="curve" smooth="yes"/>
      <point x="159" y="245"/>
      <point x="163" y="218"/>
      <point x="163" y="190" type="curve" smooth="yes"/>
      <point x="163" y="76" type="line" smooth="yes"/>
      <point x="163" y="-13"/>
      <point x="208" y="-52"/>
      <point x="239" y="-67" type="curve"/>
      <point x="216" y="-118" type="line"/>
      <point x="211" y="-115"/>
      <point x="106" y="-84"/>
      <point x="106" y="76" type="curve" smooth="yes"/>
      <point x="106" y="190" type="line" smooth="yes"/>
      <point x="106" y="218"/>
      <point x="102" y="244"/>
      <point x="95" y="270" type="curve" smooth="yes"/>
      <point x="87" y="296"/>
      <point x="68" y="321"/>
      <point x="36" y="345" type="curve" smooth="yes"/>
      <point x="25" y="353" type="line"/>
      <point x="36" y="361" type="line" smooth="yes"/>
      <point x="68" y="385"/>
      <point x="87" y="410"/>
      <point x="95" y="436" type="curve" smooth="yes"/>
      <point x="102" y="462"/>
      <point x="106" y="489"/>
      <point x="106" y="517" type="curve" smooth="yes"/>
      <point x="106" y="630" type="line" smooth="yes"/>
      <point x="106" y="792"/>
      <point x="213" y="820"/>
      <point x="216" y="823" type="curve"/>
      <point x="238" y="774" type="line"/>
      <point x="209" y="758"/>
      <point x="163" y="720"/>
      <point x="163" y="630" type="curve" smooth="yes"/>
    </contour>
  </outline>
</glyph>
<glyph name="braceright" format="1">
  <advance width="263" height="962"/>
  <unicode hex="007D"/>
  <outline>
    <contour>
      <point x="43" y="823" type="line"/>
      <point x="47" y="821"/>
      <point x="153" y="791"/>
      <point x="153" y="630" type="curve" smooth="yes"/>
      <point x="153" y="517" type="line" smooth="yes"/>
      <point x="153" y="460"/>
      <point x="158" y="410"/>
      <point x="223" y="361" type="curve" smooth="yes"/>
      <point x="234" y="353" type="line"/>
      <point x="223" y="345" type="line" smooth="yes"/>
      <point x="158" y="297"/>
      <point x="153" y="245"/>
      <point x="153" y="190" type="curve" smooth="yes"/>
      <point x="153" y="76" type="line" smooth="yes"/>
      <point x="153" y="-84"/>
      <point x="47" y="-115"/>
      <point x="42" y="-118" type="curve"/>
      <point x="20" y="-67" type="line"/>
      <point x="49" y="-51"/>
      <point x="97" y="-13"/>
      <point x="97" y="76" type="curve" smooth="yes"/>
      <point x="97" y="190" type="line" smooth="yes"/>
      <point x="97" y="246"/>
      <point x="103" y="301"/>
      <point x="163" y="353" type="curve"/>
      <point x="103" y="405"/>
      <point x="97" y="461"/>
      <point x="97" y="517" type="curve" smooth="yes"/>
      <point x="97" y="630" type="line" smooth="yes"/>
      <point x="97" y="720"/>
      <point x="50" y="758"/>
      <point x="21" y="774" type="curve"/>
    </contour>
  </outline>
</glyph>
<glyph name="cent" format="2">
  <advance width="381" height="962"/>
  <unicode hex="00A2"/>
  <outline>
    <component base="c"/>
    <contour>
      <point x="189" y="-114" type="line"/>
      <point x="189" y="248.96" type="line"/>
      <point x="189" y="623" type="line"/>
      <point x="245" y="623" type="line"/>
      <point x="245" y="245.056" type="line"/>
      <point x="245" y="-114" type="line"/>
    </contour>
  </outline>
</glyph>
<glyph name="sterling" format="2">
  <advance width="428" height="962"/>
  <unicode hex="00A3"/>
  <outline>
    <contour>
      <point x="114" y="53" type="line" smooth="yes"/>
      <point x="198" y="53"/>
      <point x="283" y="98"/>
      <point x="287" y="190" type="curve" smooth="yes"/>
      <point x="289" y="224"/>
      <point x="276" y="260"/>
      <point x="248" y="292" type="curve" smooth="yes"/>
      <point x="206" y="340" type="line"/>
      <point x="34" y="340" type="line"/>
      <point x="34" y="397" type="line"/>
      <point x="155" y="397" type="line"/>
      <point x="135" y="420" type="line" smooth="yes"/>
      <point x="94" y="468"/>
      <point x="62" y="517"/>
      <point x="64" y="570" type="curve" smooth="yes"/>
      <point x="64" y="656"/>
      <point x="138" y="708"/>
      <point x="220" y="708" type="curve" smooth="yes"/>
      <point x="267" y="708"/>
      <point x="317" y="695"/>
      <point x="361" y="671" type="curve"/>
      <point x="342" y="622" type="line"/>
      <point x="301" y="648"/>
      <point x="254" y="661"/>
      <point x="213" y="656" type="curve" smooth="yes"/>
      <point x="161" y="650"/>
      <point x="125" y="616"/>
      <point x="123" y="571" type="curve" smooth="yes"/>
      <point x="120" y="528"/>
      <point x="150" y="485"/>
      <point x="177" y="455" type="curve" smooth="yes"/>
      <point x="227" y="397" type="line"/>
      <point x="393" y="397" type="line"/>
      <point x="393" y="340" type="line"/>
      <point x="278" y="340" type="line"/>
      <point x="290" y="325" type="line" smooth="yes"/>
      <point x="323" y="283"/>
      <point x="342" y="237"/>
      <point x="342" y="191" type="curve" smooth="yes"/>
      <point x="342" y="140"/>
      <point x="315" y="80"/>
      <point x="271" y="53" type="curve"/>
      <point x="393" y="53" type="line"/>
      <point x="393" y="0" type="line"/>
      <point x="34" y="0" type="line"/>
      <point x="34" y="53" type="line"/>
    </contour>
  </outline>
</glyph>
<glyph name="section" format="2">
  <advance width="435"/>
  <unicode hex="00A7"/>
  <outline>
    <contour>
      <point x="322.75" y="626" type="line"/>
      <point x="296.75" y="643"/>
      <point x="257.75" y="652"/>
      <point x="224.75" y="652" type="curve" smooth="yes"/>
      <point x="170.75" y="652"/>
      <point x="103.75" y="629"/>
      <point x="103.75" y="573" type="curve" smooth="yes"/>
      <point x="103.75" y="457"/>
      <point x="386.75" y="484"/>
      <point x="386.75" y="313" type="curve" smooth="yes"/>
      <point x="386.75" y="273.064"/>
      <point x="371.51" y="241.398"/>
      <point x="347.566" y="218.071" type="curve"/>
      <point x="371.428" y="195.342"/>
      <point x="387" y="166.136"/>
      <point x="387" y="126" type="curve" smooth="yes"/>
      <point x="387" y="30"/>
      <point x="299" y="-18"/>
      <point x="214" y="-18" type="curve" smooth="yes"/>
      <point x="143" y="-18"/>
      <point x="72" y="15"/>
      <point x="26" y="68" type="curve"/>
      <point x="57" y="101" type="line"/>
      <point x="102" y="56"/>
      <point x="152" y="34"/>
      <point x="214" y="34" type="curve" smooth="yes"/>
      <point x="265" y="34"/>
      <point x="335" y="61"/>
      <point x="335" y="125" type="curve" smooth="yes"/>
      <point x="335" y="253"/>
      <point x="51" y="229"/>
      <point x="51" y="384" type="curve" smooth="yes"/>
      <point x="51" y="423.987"/>
      <point x="68.8743" y="457.809"/>
      <point x="99.9972" y="479.344" type="curve"/>
      <point x="70.6851" y="501.437"/>
      <point x="50.75" y="529.93"/>
      <point x="50.75" y="571" type="curve" smooth="yes"/>
      <point x="50.75" y="655"/>
      <point x="133.75" y="699"/>
      <point x="213.75" y="699" type="curve" smooth="yes"/>
      <point x="253.75" y="699"/>
      <point x="296.75" y="693"/>
      <point x="345.75" y="664" type="curve"/>
    </contour>
    <contour>
      <point x="303.463" y="249.559" type="curve"/>
      <point x="322.017" y="264.185"/>
      <point x="334.75" y="284.708"/>
      <point x="334.75" y="312" type="curve" smooth="yes"/>
      <point x="334.75" y="388.797"/>
      <point x="232.519" y="410.878"/>
      <point x="150.728" y="449.731" type="curve"/>
      <point x="123.892" y="437.195"/>
      <point x="104" y="416.509"/>
      <point x="104" y="386" type="curve" smooth="yes"/>
      <point x="104" y="311.734"/>
      <point x="219.997" y="296.082"/>
    </contour>
  </outline>
  <guideline angle="90" x="-350.087" y="0"/>
  <guideline angle="0" x="0" y="532"/>
  <guideline angle="90" x="-349.835" y="0"/>
  <guideline angle="0" x="0" y="345"/>
</glyph>
<glyph name="copyright" format="1">
  <advance width="696" height="962"/>
  <unicode hex="00A9"/>
  <outline>
    <contour>
      <point x="664" y="188" type="line" smooth="yes"/>
      <point x="664" y="16"/>
      <point x="532" y="-69"/>
      <point x="347" y="-69" type="curve" smooth="yes"/>
      <point x="164" y="-69"/>
      <point x="31" y="16"/>
      <point x="31" y="188" type="curve" smooth="yes"/>
      <point x="31" y="327" type="line" smooth="yes"/>
      <point x="31" y="497"/>
      <point x="164" y="584"/>
      <point x="347" y="584" type="curve" smooth="yes"/>
      <point x="532" y="584"/>
      <point x="664" y="497"/>
      <point x="664" y="327" type="curve" smooth="yes"/>
    </contour>
    <contour>
      <point x="605" y="302" type="line" smooth="yes"/>
      <point x="605" y="467"/>
      <point x="523" y="530"/>
      <point x="347" y="530" type="curve" smooth="yes"/>
      <point x="172" y="530"/>
      <point x="91" y="467"/>
      <point x="91" y="302" type="curve" smooth="yes"/>
      <point x="91" y="212" type="line" smooth="yes"/>
      <point x="91" y="49"/>
      <point x="172" y="-15"/>
      <point x="347" y="-15" type="curve" smooth="yes"/>
      <point x="523" y="-15"/>
      <point x="605" y="49"/>
      <point x="605" y="212" type="curve" smooth="yes"/>
    </contour>
    <contour>
      <point x="487" y="384" type="line"/>
      <point x="451" y="398"/>
      <point x="412" y="405"/>
      <point x="378" y="405" type="curve" smooth="yes"/>
      <point x="280" y="405"/>
      <point x="224" y="357"/>
      <point x="224" y="255" type="curve" smooth="yes"/>
      <point x="224" y="151"/>
      <point x="269" y="109"/>
      <point x="370" y="109" type="curve" smooth="yes"/>
      <point x="410" y="109"/>
      <point x="455" y="116"/>
      <point x="512" y="135" type="curve"/>
      <point x="528" y="91" type="line"/>
      <point x="472" y="69"/>
      <point x="417" y="58"/>
      <point x="365" y="58" type="curve" smooth="yes"/>
      <point x="239" y="58"/>
      <point x="167" y="116"/>
      <point x="167" y="250" type="curve" smooth="yes"/>
      <point x="167" y="376"/>
      <point x="235" y="455"/>
      <point x="360" y="455" type="curve" smooth="yes"/>
      <point x="411" y="455"/>
      <point x="461" y="444"/>
      <point x="503" y="421" type="curve"/>
    </contour>
  </outline>
</glyph>
<glyph name="ordfeminine" format="2">
  <advance width="329"/>
  <unicode hex="00AA"/>
  <outline>
    <contour>
      <point x="293" y="390" type="curve"/>
      <point x="249" y="385"/>
      <point x="208" y="379"/>
      <point x="172" y="379" type="curve"/>
      <point x="84" y="382"/>
      <point x="23" y="411"/>
      <point x="23" y="519" type="curve" smooth="yes"/>
      <point x="23" y="584"/>
      <point x="60" y="633"/>
      <point x="129" y="631" type="curve" smooth="yes"/>
      <point x="159" y="630"/>
      <point x="197" y="618"/>
      <point x="241" y="593" type="curve"/>
      <point x="241" y="615"/>
      <point x="232" y="637"/>
      <point x="210" y="651" type="curve" smooth="yes"/>
      <point x="192" y="663"/>
      <point x="161" y="666"/>
      <point x="124" y="666" type="curve"/>
      <point x="128" y="709" type="line"/>
      <point x="182" y="709"/>
      <point x="223" y="701"/>
      <point x="250" y="678" type="curve" smooth="yes"/>
      <point x="278" y="656"/>
      <point x="293" y="616"/>
      <point x="293" y="555" type="curve" smooth="yes"/>
      <point x="293" y="501"/>
      <point x="293" y="445"/>
    </contour>
    <contour>
      <point x="239" y="543" type="line"/>
      <point x="199" y="567"/>
      <point x="156" y="584"/>
      <point x="124" y="584" type="curve" smooth="yes"/>
      <point x="92" y="584"/>
      <point x="70" y="565"/>
      <point x="70" y="514" type="curve" smooth="yes"/>
      <point x="70" y="474"/>
      <point x="86" y="448"/>
      <point x="119" y="433" type="curve" smooth="yes"/>
      <point x="156" y="417"/>
      <point x="240" y="430"/>
      <point x="239" y="429" type="curve"/>
    </contour>
  </outline>
</glyph>
<glyph name="degree" format="2">
  <advance width="348" height="962"/>
  <unicode hex="00B0"/>
  <outline>
    <contour>
      <point x="320" y="565" type="curve" smooth="yes"/>
      <point x="320" y="485"/>
      <point x="255" y="419"/>
      <point x="175" y="419" type="curve" smooth="yes"/>
      <point x="94" y="419"/>
      <point x="28" y="485"/>
      <point x="28" y="565" type="curve" smooth="yes"/>
      <point x="28" y="645"/>
      <point x="94" y="710"/>
      <point x="175" y="710" type="curve" smooth="yes"/>
      <point x="255" y="710"/>
      <point x="320" y="645"/>
    </contour>
    <contour>
      <point x="175" y="660" type="curve" smooth="yes"/>
      <point x="123" y="660"/>
      <point x="79" y="616"/>
      <point x="79" y="565" type="curve" smooth="yes"/>
      <point x="79" y="515"/>
      <point x="123" y="471"/>
      <point x="175" y="471" type="curve" smooth="yes"/>
      <point x="226" y="471"/>
      <point x="269" y="515"/>
      <point x="269" y="565" type="curve" smooth="yes"/>
      <point x="269" y="616"/>
      <point x="226" y="660"/>
    </contour>
  </outline>
</glyph>
<glyph name="mu" format="2">
  <advance width="466"/>
  <unicode hex="00B5"/>
  <outline>
    <contour>
      <point x="409" y="95" type="line" smooth="yes"/>
      <point x="409" y="52"/>
      <point x="432" y="30"/>
      <point x="436" y="26" type="curve"/>
      <point x="409" y="-6" type="line"/>
      <point x="403" y="-3"/>
      <point x="383" y="2"/>
      <point x="361" y="44" type="curve"/>
      <point x="341" y="9"/>
      <point x="289" y="-12"/>
      <point x="238" y="-12" type="curve" smooth="yes"/>
      <point x="132" y="-12"/>
      <point x="97" y="47"/>
      <point x="97" y="44" type="curve"/>
      <point x="97" y="-210" type="line"/>
      <point x="39" y="-187" type="line"/>
      <point x="39" y="501" type="line"/>
      <point x="97" y="501" type="line"/>
      <point x="97" y="152" type="line" smooth="yes"/>
      <point x="97" y="94"/>
      <point x="147" y="43"/>
      <point x="236" y="43" type="curve" smooth="yes"/>
      <point x="304" y="43"/>
      <point x="352" y="79"/>
      <point x="352" y="154" type="curve" smooth="yes"/>
      <point x="352" y="498" type="line"/>
      <point x="409" y="510" type="line"/>
    </contour>
  </outline>
</glyph>
<glyph name="paragraph" format="1">
  <advance width="622" height="962"/>
  <unicode hex="00B6"/>
  <outline>
    <contour>
      <point x="228" y="247" type="line" smooth="yes"/>
      <point x="97" y="247"/>
      <point x="30" y="310"/>
      <point x="30" y="476" type="curve" smooth="yes"/>
      <point x="30" y="647"/>
      <point x="101" y="702"/>
      <point x="228" y="702" type="curve" smooth="yes"/>
      <point x="579" y="702" type="line"/>
      <point x="579" y="1" type="line"/>
      <point x="523" y="1" type="line"/>
      <point x="523" y="649" type="line"/>
      <point x="464" y="649" type="line"/>
      <point x="464" y="1" type="line"/>
      <point x="408" y="1" type="line"/>
      <point x="408" y="247" type="line"/>
    </contour>
    <contour>
      <point x="224" y="649" type="line" smooth="yes"/>
      <point x="146" y="649"/>
      <point x="86" y="617"/>
      <point x="86" y="476" type="curve" smooth="yes"/>
      <point x="86" y="323"/>
      <point x="148" y="301"/>
      <point x="224" y="301" type="curve" smooth="yes"/>
      <point x="408" y="301" type="line"/>
      <point x="408" y="649" type="line"/>
    </contour>
  </outline>
</glyph>
<glyph name="ordmasculine" format="2">
	<advance width="340"/>
	<unicode hex="00BA"/>
	<outline>
		<contour>
			<point x="305" y="503" type="line" smooth="yes"/>
			<point x="305" y="429"/>
			<point x="262" y="379"/>
			<point x="173" y="379" type="curve" smooth="yes"/>
			<point x="82" y="379"/>
			<point x="35" y="434"/>
			<point x="35" y="503" type="curve" smooth="yes"/>
			<point x="35" y="586" type="line" smooth="yes"/>
			<point x="35" y="667"/>
			<point x="85" y="711"/>
			<point x="172" y="711" type="curve" smooth="yes"/>
			<point x="259" y="711"/>
			<point x="305" y="664"/>
			<point x="305" y="586" type="curve" smooth="yes"/>
		</contour>
		<contour>
			<point x="251" y="581" type="line" smooth="yes"/>
			<point x="251" y="633"/>
			<point x="227" y="660"/>
			<point x="173" y="660" type="curve" smooth="yes"/>
			<point x="117" y="660"/>
			<point x="89" y="633"/>
			<point x="89" y="581" type="curve" smooth="yes"/>
			<point x="89" y="504" type="line" smooth="yes"/>
			<point x="89" y="460"/>
			<point x="122" y="430"/>
			<point x="173" y="430" type="curve" smooth="yes"/>
			<point x="226" y="430"/>
			<point x="251" y="459"/>
			<point x="251" y="504" type="curve" smooth="yes"/>
		</contour>
	</outline>
</glyph>
<glyph name="Oslash" format="2">
  <advance width="492" height="962"/>
  <unicode hex="00D8"/>
  <outline>
    <component base="O"/>
    <contour>
      <point x="38" y="-1" type="line"/>
      <point x="387" y="700" type="line"/>
      <point x="444" y="700" type="line"/>
      <point x="100" y="-1" type="line"/>
    </contour>
  </outline>
</glyph>
<glyph name="Thorn" format="2">
  <advance width="506" height="962"/>
  <unicode hex="00DE"/>
  <outline>
    <contour>
      <point x="277" y="617" type="line" smooth="yes"/>
      <point x="404" y="617"/>
      <point x="476" y="562"/>
      <point x="476" y="391" type="curve" smooth="yes"/>
      <point x="476" y="225"/>
      <point x="410" y="162"/>
      <point x="277" y="162" type="curve" smooth="yes"/>
      <point x="98" y="162" type="line"/>
      <point x="98" y="0" type="line"/>
      <point x="41" y="0" type="line"/>
      <point x="41" y="700" type="line"/>
      <point x="99" y="700" type="line"/>
      <point x="98" y="617" type="line"/>
    </contour>
    <contour>
      <point x="98" y="217" type="line"/>
      <point x="282" y="217" type="line" smooth="yes"/>
      <point x="358" y="217"/>
      <point x="419" y="238"/>
      <point x="419" y="391" type="curve" smooth="yes"/>
      <point x="419" y="532"/>
      <point x="360" y="564"/>
      <point x="282" y="564" type="curve" smooth="yes"/>
      <point x="98" y="564" type="line"/>
    </contour>
  </outline>
</glyph>
<glyph name="eth" format="2">
  <advance width="425"/>
  <unicode hex="00F0"/>
  <outline>
    <contour>
      <point x="306" y="659" type="curve"/>
      <point x="350" y="703" type="line"/>
      <point x="378" y="675" type="line"/>
      <point x="336" y="633" type="line"/>
      <point x="378" y="591"/>
      <point x="398" y="530"/>
      <point x="398" y="471" type="curve" smooth="yes"/>
      <point x="398" y="188" type="line" smooth="yes"/>
      <point x="398" y="61"/>
      <point x="331" y="-9"/>
      <point x="212" y="-9" type="curve" smooth="yes"/>
      <point x="93" y="-9"/>
      <point x="28" y="66"/>
      <point x="28" y="188" type="curve" smooth="yes"/>
      <point x="28" y="246" type="line" smooth="yes"/>
      <point x="28" y="369"/>
      <point x="88" y="434"/>
      <point x="198" y="434" type="curve" smooth="yes"/>
      <point x="260" y="434"/>
      <point x="319" y="403"/>
      <point x="341" y="360" type="curve"/>
      <point x="341" y="481" type="line" smooth="yes"/>
      <point x="341" y="533"/>
      <point x="325" y="571"/>
      <point x="302" y="599" type="curve"/>
      <point x="199" y="496" type="line"/>
      <point x="171" y="524" type="line"/>
      <point x="274" y="627" type="line"/>
      <point x="238" y="655"/>
      <point x="198" y="666"/>
      <point x="181" y="670" type="curve"/>
      <point x="190" y="701" type="line"/>
      <point x="236" y="695"/>
      <point x="274" y="681"/>
    </contour>
    <contour>
      <point x="209" y="43" type="curve" smooth="yes"/>
      <point x="297" y="43"/>
      <point x="341" y="90"/>
      <point x="341" y="188" type="curve" smooth="yes"/>
      <point x="341" y="249" type="line" smooth="yes"/>
      <point x="341" y="334"/>
      <point x="280" y="381"/>
      <point x="203" y="381" type="curve" smooth="yes"/>
      <point x="127" y="381"/>
      <point x="84" y="338"/>
      <point x="84" y="254" type="curve" smooth="yes"/>
      <point x="84" y="188" type="line" smooth="yes"/>
      <point x="84" y="90"/>
      <point x="125" y="43"/>
    </contour>
  </outline>
</glyph>
<glyph name="dotlessi" format="2">
  <advance width="135" height="962"/>
  <unicode hex="0131"/>
  <outline>
    <contour>
      <point x="38" y="0" type="line"/>
      <point x="38" y="500" type="line"/>
      <point x="95" y="500" type="line"/>
      <point x="95" y="0" type="line"/>
    </contour>
  </outline>
</glyph>
<glyph name="IJ" format="2">
  <advance width="551"/>
  <unicode hex="0132"/>
  <outline>
    <contour>
      <point x="507" y="700" type="line"/>
      <point x="507" y="186" type="line" smooth="yes"/>
      <point x="507" y="58"/>
      <point x="421" y="-11"/>
      <point x="298" y="-11" type="curve" smooth="yes"/>
      <point x="173" y="-11"/>
      <point x="87" y="56"/>
      <point x="87" y="186" type="curve" smooth="yes"/>
      <point x="87" y="223" type="line"/>
      <point x="143" y="223" type="line"/>
      <point x="143" y="187" type="line" smooth="yes"/>
      <point x="143" y="91"/>
      <point x="206" y="42"/>
      <point x="297" y="42" type="curve" smooth="yes"/>
      <point x="389" y="42"/>
      <point x="452" y="91"/>
      <point x="452" y="187" type="curve" smooth="yes"/>
      <point x="452" y="649" type="line"/>
      <point x="383" y="651" type="line"/>
      <point x="383" y="700" type="line"/>
    </contour>
    <contour>
      <point x="143" y="700" type="line"/>
      <point x="143" y="275" type="line"/>
      <point x="87" y="275" type="line"/>
      <point x="87" y="649" type="line"/>
      <point x="19" y="651" type="line"/>
      <point x="19" y="700" type="line"/>
    </contour>
  </outline>
</glyph>
<glyph name="Lslash" format="1">
  <advance width="511" height="962"/>
  <unicode hex="0141"/>
  <outline>
    <component base="L" xOffset="85.5"/>
    <contour>
      <point x="40" y="309" type="line"/>
      <point x="18" y="359" type="line"/>
      <point x="310" y="490" type="line"/>
      <point x="333" y="440" type="line"/>
    </contour>
  </outline>
</glyph>
<glyph name="Eng" format="2">
  <advance width="578"/>
  <unicode hex="014A"/>
  <outline>
    <contour>
      <point x="535" y="-62" type="line" smooth="yes"/>
      <point x="535" y="-144"/>
      <point x="504" y="-184"/>
      <point x="428" y="-209" type="curve"/>
      <point x="413" y="-166" type="line"/>
      <point x="459" y="-147"/>
      <point x="479" y="-111"/>
      <point x="479" y="-62" type="curve" smooth="yes"/>
      <point x="479" y="1" type="line"/>
      <point x="98" y="597" type="line"/>
      <point x="98" y="0" type="line"/>
      <point x="41" y="0" type="line"/>
      <point x="41" y="700" type="line"/>
      <point x="99" y="700" type="line"/>
      <point x="479" y="104" type="line"/>
      <point x="479" y="700" type="line"/>
      <point x="535" y="700" type="line"/>
    </contour>
  </outline>
</glyph>
<glyph name="Tbar" format="1">
  <advance width="417" height="962"/>
  <unicode hex="0166"/>
  <outline>
    <component base="T"/>
    <contour>
      <point x="9" y="379" type="line"/>
      <point x="409" y="379" type="line"/>
      <point x="409" y="326" type="line"/>
      <point x="9" y="326" type="line"/>
    </contour>
  </outline>
</glyph>
<glyph name="dotlessj" format="1">
  <advance width="188" height="962"/>
  <unicode hex="0237"/>
  <outline>
    <contour>
      <point x="148" y="-63" type="line" smooth="yes"/>
      <point x="148" y="-145"/>
      <point x="119" y="-186"/>
      <point x="42" y="-210" type="curve"/>
      <point x="26" y="-167" type="line"/>
      <point x="72" y="-149"/>
      <point x="92" y="-111"/>
      <point x="92" y="-62" type="curve" smooth="yes"/>
      <point x="92" y="449" type="line"/>
      <point x="28" y="449" type="line"/>
      <point x="28" y="501" type="line"/>
      <point x="148" y="501" type="line"/>
    </contour>
  </outline>
</glyph>
<glyph name="caron" format="1">
  <advance width="267" height="962"/>
  <unicode hex="02C7"/>
  <outline>
    <contour>
      <point x="264" y="717" type="line"/>
      <point x="132" y="589" type="line"/>
      <point x="3" y="715" type="line"/>
      <point x="42" y="753" type="line"/>
      <point x="132" y="665" type="line"/>
      <point x="225" y="754" type="line"/>
    </contour>
  </outline>
</glyph>
<glyph name="hungarumlaut" format="2">
  <advance width="267"/>
  <unicode hex="02DD"/>
  <outline>
    <contour>
      <point x="146" y="660" type="curve" smooth="yes"/>
      <point x="92" y="582" type="line"/>
      <point x="56" y="582" type="line"/>
      <point x="95" y="688" type="line"/>
      <point x="101" y="707"/>
      <point x="121" y="718"/>
      <point x="139" y="708" type="curve" smooth="yes"/>
      <point x="157" y="698"/>
      <point x="157" y="676"/>
    </contour>
    <contour>
      <point x="257" y="660" type="curve" smooth="yes"/>
      <point x="204" y="582" type="line"/>
      <point x="169" y="582" type="line"/>
      <point x="206" y="688" type="line" smooth="yes"/>
      <point x="212" y="707"/>
      <point x="232" y="718"/>
      <point x="250" y="708" type="curve" smooth="yes"/>
      <point x="268" y="698"/>
      <point x="268" y="677"/>
    </contour>
  </outline>
</glyph>
<glyph name="circumflexcomb" format="2">
  <advance width="267" height="962"/>
  <unicode hex="0302"/>
  <outline>
    <contour>
      <point x="264" y="624" type="line"/>
      <point x="224" y="587" type="line"/>
      <point x="135" y="675" type="line"/>
      <point x="42" y="585" type="line"/>
      <point x="3" y="623" type="line"/>
      <point x="135" y="751" type="line"/>
    </contour>
  </outline>
</glyph>
<glyph name="macroncomb" format="2">
  <advance width="267"/>
  <unicode hex="0304"/>
  <outline>
    <contour>
      <point x="244" y="677" type="line"/>
      <point x="244" y="621" type="line"/>
      <point x="23" y="621" type="line"/>
      <point x="23" y="677" type="line"/>
    </contour>
  </outline>
</glyph>
<glyph name="dotaccentcomb" format="2">
  <advance width="267"/>
  <unicode hex="0307"/>
  <outline>
    <contour>
      <point x="134" y="750" type="curve" smooth="yes"/>
      <point x="152" y="750"/>
      <point x="167" y="735"/>
      <point x="167" y="716" type="curve" smooth="yes"/>
      <point x="167" y="699"/>
      <point x="152" y="683"/>
      <point x="134" y="683" type="curve" smooth="yes"/>
      <point x="115" y="683"/>
      <point x="101" y="699"/>
      <point x="101" y="716" type="curve" smooth="yes"/>
      <point x="101" y="735"/>
      <point x="115" y="750"/>
    </contour>
  </outline>
</glyph>
<glyph name="hungarumlautcomb" format="2">
  <advance width="267" height="962"/>
  <unicode hex="030B"/>
  <outline>
    <contour>
      <point x="146" y="660" type="curve" smooth="yes"/>
      <point x="92" y="582" type="line"/>
      <point x="56" y="582" type="line"/>
      <point x="95" y="688" type="line" smooth="yes"/>
      <point x="102" y="707"/>
      <point x="121" y="718"/>
      <point x="139" y="708" type="curve" smooth="yes"/>
      <point x="157" y="698"/>
      <point x="157" y="676"/>
    </contour>
    <contour>
      <point x="257" y="660" type="curve" smooth="yes"/>
      <point x="204" y="582" type="line"/>
      <point x="169" y="582" type="line"/>
      <point x="206" y="688" type="line" smooth="yes"/>
      <point x="212" y="707"/>
      <point x="232" y="718"/>
      <point x="250" y="708" type="curve" smooth="yes"/>
      <point x="268" y="698"/>
      <point x="268" y="677"/>
    </contour>
  </outline>
</glyph>
<glyph name="cedillacomb" format="2">
  <advance width="267"/>
  <unicode hex="0327"/>
  <outline>
    <contour>
      <point x="166" y="10" type="line"/>
      <point x="140" y="-34" type="line"/>
      <point x="148" y="-33"/>
      <point x="157" y="-33"/>
      <point x="166" y="-32" type="curve" smooth="yes"/>
      <point x="232" y="-28"/>
      <point x="271" y="-70"/>
      <point x="271" y="-126" type="curve" smooth="yes"/>
      <point x="271" y="-192"/>
      <point x="215" y="-224"/>
      <point x="156" y="-224" type="curve" smooth="yes"/>
      <point x="110" y="-224"/>
      <point x="56" y="-212"/>
      <point x="54" y="-212" type="curve"/>
      <point x="66" y="-164" type="line"/>
      <point x="95" y="-170"/>
      <point x="123" y="-175"/>
      <point x="150" y="-175" type="curve" smooth="yes"/>
      <point x="189" y="-175"/>
      <point x="221" y="-165"/>
      <point x="221" y="-124" type="curve" smooth="yes"/>
      <point x="221" y="-89"/>
      <point x="197" y="-82"/>
      <point x="163" y="-82" type="curve" smooth="yes"/>
      <point x="141" y="-82"/>
      <point x="115" y="-86"/>
      <point x="88" y="-89" type="curve"/>
      <point x="75" y="-59" type="line"/>
      <point x="116" y="10" type="line"/>
    </contour>
  </outline>
</glyph>
<glyph name="Sigma" format="2">
  <advance width="523"/>
  <unicode hex="03A3"/>
  <outline>
    <contour>
      <point x="344" y="50" type="line" smooth="yes"/>
      <point x="395" y="50"/>
      <point x="435" y="76"/>
      <point x="450" y="122" type="curve"/>
      <point x="493" y="107" type="line"/>
      <point x="471" y="32"/>
      <point x="427" y="0"/>
      <point x="348" y="0" type="curve" smooth="yes"/>
      <point x="25" y="0" type="line"/>
      <point x="251" y="385" type="line"/>
      <point x="41" y="700" type="line"/>
      <point x="470" y="700" type="line"/>
      <point x="451" y="647" type="line"/>
      <point x="142" y="647" type="line"/>
      <point x="318" y="387" type="line"/>
      <point x="118" y="50" type="line"/>
    </contour>
  </outline>
</glyph>
<glyph name="Upsilon" format="2">
  <advance width="515"/>
  <unicode hex="03A5"/>
  <outline>
    <contour>
      <point x="474" y="156" type="line" smooth="yes"/>
      <point x="474" y="58"/>
      <point x="436" y="2"/>
      <point x="369" y="-7" type="curve"/>
      <point x="356" y="30" type="line"/>
      <point x="398" y="46"/>
      <point x="417" y="86"/>
      <point x="417" y="153" type="curve" smooth="yes"/>
      <point x="417" y="306" type="line"/>
      <point x="379" y="264"/>
      <point x="301" y="245"/>
      <point x="238" y="245" type="curve" smooth="yes"/>
      <point x="104" y="245"/>
      <point x="30" y="327"/>
      <point x="30" y="455" type="curve" smooth="yes"/>
      <point x="30" y="700" type="line"/>
      <point x="86" y="700" type="line"/>
      <point x="86" y="453" type="line" smooth="yes"/>
      <point x="86" y="351"/>
      <point x="147" y="300"/>
      <point x="250" y="300" type="curve" smooth="yes"/>
      <point x="328" y="300"/>
      <point x="417" y="331"/>
      <point x="417" y="423" type="curve" smooth="yes"/>
      <point x="417" y="700" type="line"/>
      <point x="474" y="700" type="line"/>
    </contour>
  </outline>
</glyph>
<glyph name="Phi" format="1">
  <advance width="595" height="962"/>
  <unicode hex="03A6"/>
  <outline>
    <contour>
      <point x="181" y="661" type="line"/>
      <point x="120" y="647"/>
      <point x="89" y="598"/>
      <point x="89" y="518" type="curve" smooth="yes"/>
      <point x="89" y="216" type="line" smooth="yes"/>
      <point x="89" y="127"/>
      <point x="143" y="79"/>
      <point x="224" y="79" type="curve" smooth="yes"/>
      <point x="267" y="79" type="line"/>
      <point x="267" y="605" type="line" smooth="yes"/>
      <point x="267" y="672"/>
      <point x="312" y="710"/>
      <point x="374" y="710" type="curve" smooth="yes"/>
      <point x="492" y="710"/>
      <point x="560" y="633"/>
      <point x="560" y="511" type="curve" smooth="yes"/>
      <point x="560" y="225" type="line" smooth="yes"/>
      <point x="560" y="105"/>
      <point x="501" y="30"/>
      <point x="373" y="30" type="curve" smooth="yes"/>
      <point x="324" y="30" type="line"/>
      <point x="324" y="-35" type="line"/>
      <point x="267" y="-28" type="line"/>
      <point x="267" y="30" type="line"/>
      <point x="224" y="30" type="line" smooth="yes"/>
      <point x="96" y="30"/>
      <point x="33" y="105"/>
      <point x="33" y="225" type="curve" smooth="yes"/>
      <point x="33" y="518" type="line" smooth="yes"/>
      <point x="33" y="618"/>
      <point x="72" y="681"/>
      <point x="151" y="706" type="curve"/>
    </contour>
    <contour>
      <point x="373" y="79" type="line" smooth="yes"/>
      <point x="455" y="79"/>
      <point x="507" y="127"/>
      <point x="507" y="216" type="curve" smooth="yes"/>
      <point x="507" y="521" type="line" smooth="yes"/>
      <point x="507" y="602"/>
      <point x="455" y="658"/>
      <point x="382" y="658" type="curve" smooth="yes"/>
      <point x="344" y="658"/>
      <point x="324" y="638"/>
      <point x="324" y="596" type="curve" smooth="yes"/>
      <point x="324" y="79" type="line"/>
    </contour>
  </outline>
</glyph>
<glyph name="Chi" format="1">
  <advance width="556" height="962"/>
  <unicode hex="03A7"/>
  <outline>
    <contour>
      <point x="279" y="406" type="line"/>
      <point x="454" y="700" type="line"/>
      <point x="516" y="700" type="line"/>
      <point x="313" y="352" type="line"/>
      <point x="532" y="0" type="line"/>
      <point x="463" y="0" type="line"/>
      <point x="279" y="294" type="line"/>
      <point x="94" y="0" type="line"/>
      <point x="25" y="0" type="line"/>
      <point x="246" y="352" type="line"/>
      <point x="43" y="700" type="line"/>
      <point x="107" y="700" type="line"/>
    </contour>
  </outline>
</glyph>
<glyph name="Omegagreek" format="1">
  <advance width="582" height="962"/>
  <unicode hex="03A9"/>
  <outline>
    <contour>
      <point x="535" y="195" type="line" smooth="yes"/>
      <point x="535" y="129"/>
      <point x="512" y="80"/>
      <point x="462" y="50" type="curve"/>
      <point x="532" y="50" type="line"/>
      <point x="548" y="-1" type="line"/>
      <point x="319" y="-1" type="line"/>
      <point x="319" y="50" type="line"/>
      <point x="407" y="50"/>
      <point x="480" y="102"/>
      <point x="480" y="195" type="curve" smooth="yes"/>
      <point x="480" y="512" type="line" smooth="yes"/>
      <point x="480" y="600"/>
      <point x="426" y="654"/>
      <point x="347" y="654" type="curve" smooth="yes"/>
      <point x="235" y="654" type="line" smooth="yes"/>
      <point x="156" y="654"/>
      <point x="104" y="600"/>
      <point x="104" y="512" type="curve" smooth="yes"/>
      <point x="104" y="195" type="line" smooth="yes"/>
      <point x="104" y="100"/>
      <point x="169" y="50"/>
      <point x="262" y="50" type="curve"/>
      <point x="262" y="-1" type="line"/>
      <point x="33" y="-1" type="line"/>
      <point x="51" y="50" type="line"/>
      <point x="116" y="50" type="line"/>
      <point x="71" y="79"/>
      <point x="47" y="128"/>
      <point x="47" y="195" type="curve" smooth="yes"/>
      <point x="47" y="503" type="line" smooth="yes"/>
      <point x="47" y="625"/>
      <point x="109" y="707"/>
      <point x="235" y="707" type="curve" smooth="yes"/>
      <point x="347" y="707" type="line" smooth="yes"/>
      <point x="472" y="707"/>
      <point x="535" y="625"/>
      <point x="535" y="503" type="curve" smooth="yes"/>
    </contour>
  </outline>
</glyph>
<glyph name="iotatonos" format="2">
  <advance width="135"/>
  <unicode hex="03AF"/>
  <outline>
    <component base="dotlessi"/>
    <contour>
      <point x="137" y="649" type="curve" smooth="yes"/>
      <point x="84" y="570" type="line"/>
      <point x="49" y="570" type="line"/>
      <point x="87" y="677" type="line" smooth="yes"/>
      <point x="93" y="696"/>
      <point x="112" y="706"/>
      <point x="130" y="696" type="curve" smooth="yes"/>
      <point x="148" y="686"/>
      <point x="148" y="665"/>
    </contour>
  </outline>
</glyph>
<glyph name="alpha" format="2">
  <advance width="439" height="962"/>
  <unicode hex="03B1"/>
  <outline>
    <contour>
      <point x="403" y="487" type="line"/>
      <point x="403" y="487"/>
      <point x="396" y="449"/>
      <point x="396" y="400" type="curve" smooth="yes"/>
      <point x="396" y="4" type="line"/>
      <point x="398" y="4"/>
      <point x="271" y="-3"/>
      <point x="226" y="-4" type="curve" smooth="yes"/>
      <point x="130" y="-7"/>
      <point x="31" y="19"/>
      <point x="31" y="169" type="curve" smooth="yes"/>
      <point x="31" y="354" type="line" smooth="yes"/>
      <point x="31" y="473"/>
      <point x="104" y="508"/>
      <point x="179" y="508" type="curve" smooth="yes"/>
      <point x="232" y="508"/>
      <point x="293" y="490"/>
      <point x="346" y="465" type="curve"/>
      <point x="346" y="465"/>
      <point x="351" y="490"/>
      <point x="359" y="508" type="curve"/>
    </contour>
    <contour>
      <point x="86" y="163" type="line" smooth="yes"/>
      <point x="86" y="88"/>
      <point x="127" y="46"/>
      <point x="206" y="46" type="curve" smooth="yes"/>
      <point x="277" y="46"/>
      <point x="340" y="52"/>
      <point x="340" y="52" type="curve"/>
      <point x="340" y="415" type="line"/>
      <point x="274" y="444"/>
      <point x="217" y="456"/>
      <point x="177" y="456" type="curve" smooth="yes"/>
      <point x="146" y="456"/>
      <point x="86" y="449"/>
      <point x="86" y="351" type="curve" smooth="yes"/>
    </contour>
  </outline>
</glyph>
<glyph name="epsilon" format="2">
  <advance width="396"/>
  <unicode hex="03B5"/>
  <outline>
    <contour>
      <point x="302" y="444" type="line"/>
      <point x="247" y="463"/>
      <point x="212" y="463"/>
      <point x="180" y="459" type="curve" smooth="yes"/>
      <point x="129" y="452"/>
      <point x="106" y="417"/>
      <point x="106" y="382" type="curve" smooth="yes"/>
      <point x="106" y="340"/>
      <point x="139" y="301"/>
      <point x="183" y="301" type="curve" smooth="yes"/>
      <point x="302" y="301" type="line"/>
      <point x="282" y="247" type="line"/>
      <point x="184" y="247" type="line" smooth="yes"/>
      <point x="145" y="247"/>
      <point x="76" y="222"/>
      <point x="76" y="146" type="curve" smooth="yes"/>
      <point x="76" y="87"/>
      <point x="130" y="42"/>
      <point x="213" y="42" type="curve" smooth="yes"/>
      <point x="259" y="42"/>
      <point x="308" y="56"/>
      <point x="356" y="74" type="curve"/>
      <point x="372" y="23" type="line"/>
      <point x="326" y="2"/>
      <point x="261" y="-11"/>
      <point x="203" y="-11" type="curve" smooth="yes"/>
      <point x="77" y="-11"/>
      <point x="20" y="66"/>
      <point x="20" y="149" type="curve" smooth="yes"/>
      <point x="20" y="203"/>
      <point x="52" y="257"/>
      <point x="105" y="279" type="curve"/>
      <point x="71" y="298"/>
      <point x="47" y="337"/>
      <point x="47" y="379" type="curve" smooth="yes"/>
      <point x="47" y="442"/>
      <point x="95" y="511"/>
      <point x="202" y="511" type="curve" smooth="yes"/>
      <point x="231" y="511"/>
      <point x="264" y="507"/>
      <point x="302" y="497" type="curve"/>
    </contour>
  </outline>
</glyph>
<glyph name="zeta" format="2">
  <advance width="413" height="962"/>
  <unicode hex="03B6"/>
  <anchor x="207" y="775" name="top"/>
  <outline>
    <contour>
      <point x="388" y="654" type="line"/>
      <point x="390" y="654"/>
      <point x="311" y="602"/>
      <point x="232" y="499" type="curve" smooth="yes"/>
      <point x="165" y="410"/>
      <point x="89" y="298"/>
      <point x="82" y="184" type="curve" smooth="yes"/>
      <point x="81" y="142"/>
      <point x="95" y="109"/>
      <point x="123" y="83" type="curve" smooth="yes"/>
      <point x="164" y="45"/>
      <point x="234" y="37"/>
      <point x="382" y="52" type="curve"/>
      <point x="382" y="-210" type="line"/>
      <point x="324" y="-187" type="line"/>
      <point x="324" y="-2" type="line"/>
      <point x="205" y="-15"/>
      <point x="126" y="1"/>
      <point x="74" y="50" type="curve" smooth="yes"/>
      <point x="42" y="81"/>
      <point x="25" y="129"/>
      <point x="26" y="185" type="curve" smooth="yes"/>
      <point x="30" y="304"/>
      <point x="107" y="434"/>
      <point x="184" y="523" type="curve" smooth="yes"/>
      <point x="218" y="565"/>
      <point x="258" y="611"/>
      <point x="304" y="653" type="curve"/>
      <point x="95" y="653" type="line"/>
      <point x="95" y="700" type="line"/>
      <point x="366" y="700" type="line"/>
    </contour>
  </outline>
</glyph>
<glyph name="theta" format="2">
  <advance width="442"/>
  <unicode hex="03B8"/>
  <outline>
    <contour>
      <point x="220" y="709" type="curve" smooth="yes"/>
      <point x="347" y="709"/>
      <point x="405" y="632"/>
      <point x="405" y="505" type="curve" smooth="yes"/>
      <point x="405" y="189" type="line" smooth="yes"/>
      <point x="405" y="59"/>
      <point x="343" y="-6"/>
      <point x="220" y="-6" type="curve" smooth="yes"/>
      <point x="94" y="-6"/>
      <point x="32" y="67"/>
      <point x="32" y="189" type="curve" smooth="yes"/>
      <point x="32" y="311" type="line" smooth="yes"/>
      <point x="32" y="371"/>
      <point x="48" y="419"/>
      <point x="77" y="453" type="curve"/>
      <point x="54" y="492"/>
      <point x="50" y="535"/>
      <point x="50" y="559" type="curve" smooth="yes"/>
      <point x="50" y="638"/>
      <point x="108" y="709"/>
    </contour>
    <contour>
      <point x="349" y="506" type="line" smooth="yes"/>
      <point x="349" y="614"/>
      <point x="297" y="656"/>
      <point x="221" y="656" type="curve" smooth="yes"/>
      <point x="147" y="656"/>
      <point x="109" y="611"/>
      <point x="109" y="557" type="curve" smooth="yes"/>
      <point x="109" y="540"/>
      <point x="105" y="473"/>
      <point x="178" y="429" type="curve" smooth="yes"/>
      <point x="214" y="409"/>
      <point x="268" y="394"/>
      <point x="349" y="394" type="curve"/>
    </contour>
    <contour>
      <point x="220" y="42" type="curve" smooth="yes"/>
      <point x="306" y="42"/>
      <point x="349" y="87"/>
      <point x="349" y="176" type="curve" smooth="yes"/>
      <point x="349" y="349" type="line"/>
      <point x="229" y="344"/>
      <point x="156" y="372"/>
      <point x="114" y="409" type="curve"/>
      <point x="96" y="385"/>
      <point x="88" y="353"/>
      <point x="88" y="311" type="curve" smooth="yes"/>
      <point x="88" y="176" type="line" smooth="yes"/>
      <point x="88" y="87"/>
      <point x="142" y="42"/>
    </contour>
  </outline>
</glyph>
<glyph name="nu" format="2">
  <advance width="428" height="962"/>
  <unicode hex="03BD"/>
  <outline>
    <contour>
      <point x="19" y="501" type="line"/>
      <point x="77" y="501" type="line"/>
      <point x="212" y="58" type="line"/>
      <point x="345" y="501" type="line"/>
      <point x="404" y="501" type="line"/>
      <point x="249" y="0" type="line"/>
      <point x="172" y="0" type="line"/>
    </contour>
  </outline>
</glyph>
<glyph name="sigma" format="2">
  <advance width="446"/>
  <unicode hex="03C3"/>
  <outline>
    <contour>
      <point x="444" y="517" type="line"/>
      <point x="420" y="480"/>
      <point x="391" y="461"/>
      <point x="361" y="453" type="curve"/>
      <point x="380" y="431"/>
      <point x="398" y="394"/>
      <point x="398" y="320" type="curve" smooth="yes"/>
      <point x="398" y="185" type="line" smooth="yes"/>
      <point x="398" y="68"/>
      <point x="338" y="-10"/>
      <point x="217" y="-10" type="curve" smooth="yes"/>
      <point x="92" y="-10"/>
      <point x="28" y="77"/>
      <point x="28" y="185" type="curve" smooth="yes"/>
      <point x="28" y="320" type="line" smooth="yes"/>
      <point x="28" y="472"/>
      <point x="129" y="512"/>
      <point x="215" y="512" type="curve" smooth="yes"/>
      <point x="263" y="512"/>
      <point x="308" y="500"/>
      <point x="336" y="504" type="curve" smooth="yes"/>
      <point x="358" y="506"/>
      <point x="390" y="521"/>
      <point x="411" y="543" type="curve"/>
    </contour>
    <contour>
      <point x="341" y="334" type="line" smooth="yes"/>
      <point x="341" y="396"/>
      <point x="323" y="432"/>
      <point x="307" y="449" type="curve"/>
      <point x="279" y="451"/>
      <point x="245" y="459"/>
      <point x="215" y="459" type="curve" smooth="yes"/>
      <point x="157" y="459"/>
      <point x="87" y="429"/>
      <point x="87" y="327" type="curve" smooth="yes"/>
      <point x="87" y="175" type="line" smooth="yes"/>
      <point x="87" y="95"/>
      <point x="138" y="40"/>
      <point x="218" y="40" type="curve" smooth="yes"/>
      <point x="302" y="40"/>
      <point x="341" y="93"/>
      <point x="341" y="175" type="curve" smooth="yes"/>
    </contour>
  </outline>
</glyph>
<glyph name="tau" format="2">
  <advance width="351" height="962"/>
  <unicode hex="03C4"/>
  <outline>
    <contour>
      <point x="200" y="133" type="line" smooth="yes"/>
      <point x="200" y="79"/>
      <point x="222" y="46"/>
      <point x="266" y="30" type="curve"/>
      <point x="250" y="-13" type="line"/>
      <point x="175" y="9"/>
      <point x="144" y="54"/>
      <point x="144" y="133" type="curve" smooth="yes"/>
      <point x="144" y="447" type="line"/>
      <point x="23" y="447" type="line"/>
      <point x="23" y="500" type="line"/>
      <point x="327" y="500" type="line"/>
      <point x="327" y="447" type="line"/>
      <point x="200" y="447" type="line"/>
    </contour>
  </outline>
</glyph>
<glyph name="upsilon" format="1">
  <advance width="441" height="962"/>
  <unicode hex="03C5"/>
  <outline>
    <contour>
      <point x="405" y="185" type="line" smooth="yes"/>
      <point x="405" y="67"/>
      <point x="344" y="-10"/>
      <point x="223" y="-10" type="curve" smooth="yes"/>
      <point x="98" y="-10"/>
      <point x="34" y="77"/>
      <point x="34" y="185" type="curve" smooth="yes"/>
      <point x="34" y="501" type="line"/>
      <point x="92" y="501" type="line"/>
      <point x="92" y="175" type="line" smooth="yes"/>
      <point x="92" y="95"/>
      <point x="145" y="40"/>
      <point x="225" y="40" type="curve" smooth="yes"/>
      <point x="309" y="40"/>
      <point x="351" y="93"/>
      <point x="351" y="175" type="curve" smooth="yes"/>
      <point x="351" y="501" type="line"/>
      <point x="405" y="501" type="line"/>
    </contour>
  </outline>
</glyph>
<glyph name="chi" format="1">
  <advance width="489" height="962"/>
  <unicode hex="03C7"/>
  <outline>
    <contour>
      <point x="377" y="-97" type="line" smooth="yes"/>
      <point x="401" y="-146"/>
      <point x="432" y="-164"/>
      <point x="486" y="-174" type="curve"/>
      <point x="458" y="-212" type="line"/>
      <point x="404" y="-212"/>
      <point x="357" y="-182"/>
      <point x="326" y="-118" type="curve" smooth="yes"/>
      <point x="225" y="92" type="line"/>
      <point x="73" y="-205" type="line"/>
      <point x="21" y="-181" type="line"/>
      <point x="194" y="155" type="line"/>
      <point x="25" y="500" type="line"/>
      <point x="87" y="500" type="line"/>
      <point x="226" y="217" type="line"/>
      <point x="370" y="500" type="line"/>
      <point x="433" y="500" type="line"/>
      <point x="256" y="153" type="line"/>
    </contour>
  </outline>
</glyph>
<glyph name="psi" format="1">
  <advance width="594" height="962"/>
  <unicode hex="03C8"/>
  <outline>
    <contour>
      <point x="528" y="506" type="line"/>
      <point x="556" y="472"/>
      <point x="560" y="438"/>
      <point x="560" y="387" type="curve" smooth="yes"/>
      <point x="560" y="189" type="line" smooth="yes"/>
      <point x="560" y="68"/>
      <point x="498" y="-7"/>
      <point x="371" y="-7" type="curve" smooth="yes"/>
      <point x="327" y="-7" type="line"/>
      <point x="327" y="-210" type="line"/>
      <point x="270" y="-188" type="line"/>
      <point x="270" y="-7" type="line"/>
      <point x="220" y="-7" type="line" smooth="yes"/>
      <point x="94" y="-7"/>
      <point x="33" y="68"/>
      <point x="33" y="189" type="curve" smooth="yes"/>
      <point x="33" y="500" type="line"/>
      <point x="86" y="500" type="line"/>
      <point x="86" y="179" type="line" smooth="yes"/>
      <point x="86" y="91"/>
      <point x="141" y="43"/>
      <point x="220" y="43" type="curve" smooth="yes"/>
      <point x="270" y="43" type="line"/>
      <point x="270" y="500" type="line"/>
      <point x="327" y="500" type="line"/>
      <point x="327" y="43" type="line"/>
      <point x="371" y="43" type="line" smooth="yes"/>
      <point x="451" y="43"/>
      <point x="504" y="91"/>
      <point x="504" y="179" type="curve" smooth="yes"/>
      <point x="504" y="387" type="line" smooth="yes"/>
      <point x="504" y="430"/>
      <point x="499" y="463"/>
      <point x="469" y="489" type="curve"/>
    </contour>
  </outline>
</glyph>
<glyph name="omega" format="2">
  <advance width="596" height="962"/>
  <unicode hex="03C9"/>
  <outline>
    <contour>
      <point x="457" y="499" type="line"/>
      <point x="527" y="473"/>
      <point x="563" y="412"/>
      <point x="563" y="316" type="curve" smooth="yes"/>
      <point x="563" y="187" type="line" smooth="yes"/>
      <point x="563" y="54"/>
      <point x="510" y="-13"/>
      <point x="403" y="-13" type="curve" smooth="yes"/>
      <point x="356" y="-13"/>
      <point x="320" y="5"/>
      <point x="298" y="40" type="curve"/>
      <point x="275" y="5"/>
      <point x="238" y="-13"/>
      <point x="193" y="-13" type="curve" smooth="yes"/>
      <point x="86" y="-13"/>
      <point x="30" y="54"/>
      <point x="30" y="187" type="curve" smooth="yes"/>
      <point x="30" y="316" type="line" smooth="yes"/>
      <point x="30" y="411"/>
      <point x="67" y="473"/>
      <point x="140" y="499" type="curve"/>
      <point x="171" y="455" type="line"/>
      <point x="116" y="438"/>
      <point x="86" y="396"/>
      <point x="86" y="325" type="curve" smooth="yes"/>
      <point x="86" y="177" type="line" smooth="yes"/>
      <point x="86" y="84"/>
      <point x="133" y="40"/>
      <point x="189" y="40" type="curve" smooth="yes"/>
      <point x="246" y="40"/>
      <point x="266" y="78"/>
      <point x="270" y="157" type="curve"/>
      <point x="270" y="297" type="line"/>
      <point x="327" y="297" type="line"/>
      <point x="327" y="157" type="line" smooth="yes"/>
      <point x="327" y="78"/>
      <point x="349" y="40"/>
      <point x="405" y="40" type="curve" smooth="yes"/>
      <point x="463" y="40"/>
      <point x="507" y="84"/>
      <point x="507" y="177" type="curve" smooth="yes"/>
      <point x="507" y="325" type="line" smooth="yes"/>
      <point x="507" y="396"/>
      <point x="479" y="438"/>
      <point x="424" y="455" type="curve"/>
    </contour>
  </outline>
</glyph>
<glyph name="uni0402" format="1">
  <advance width="582" height="962"/>
  <unicode hex="0402"/>
  <outline>
    <component base="T"/>
    <contour>
      <point x="372" y="509" type="curve" smooth="yes"/>
      <point x="483" y="509"/>
      <point x="546" y="451"/>
      <point x="546" y="345" type="curve" smooth="yes"/>
      <point x="546" y="131" type="line" smooth="yes"/>
      <point x="546" y="53"/>
      <point x="514" y="8"/>
      <point x="441" y="-14" type="curve"/>
      <point x="423" y="29" type="line"/>
      <point x="468" y="44"/>
      <point x="490" y="78"/>
      <point x="490" y="131" type="curve" smooth="yes"/>
      <point x="490" y="342" type="line" smooth="yes"/>
      <point x="490" y="433"/>
      <point x="425" y="459"/>
      <point x="361" y="459" type="curve" smooth="yes"/>
      <point x="315" y="459"/>
      <point x="273" y="447"/>
      <point x="232" y="424" type="curve"/>
      <point x="232" y="466" type="line"/>
      <point x="270" y="492"/>
      <point x="322" y="509"/>
    </contour>
  </outline>
</glyph>
<glyph name="uni0404" format="2">
  <advance width="424" height="962"/>
  <unicode hex="0404"/>
  <outline>
    <component base="C"/>
    <contour>
      <point x="81" y="357" type="line"/>
      <point x="81" y="412" type="line"/>
      <point x="281" y="412" type="line"/>
      <point x="263" y="357" type="line"/>
    </contour>
  </outline>
</glyph>
<glyph name="uni040A" format="2">
  <advance width="831"/>
  <unicode hex="040A"/>
  <outline>
    <contour>
      <point x="646" y="413" type="line" smooth="yes"/>
      <point x="728" y="413"/>
      <point x="801" y="365"/>
      <point x="801" y="253" type="curve" smooth="yes"/>
      <point x="801" y="170" type="line" smooth="yes"/>
      <point x="801" y="19"/>
      <point x="704" y="-9"/>
      <point x="574" y="-9" type="curve" smooth="yes"/>
      <point x="522" y="-9"/>
      <point x="414" y="1"/>
      <point x="414" y="1" type="curve"/>
      <point x="414" y="358" type="line"/>
      <point x="101" y="358" type="line"/>
      <point x="101" y="1" type="line"/>
      <point x="41" y="1" type="line"/>
      <point x="41" y="701" type="line"/>
      <point x="101" y="701" type="line"/>
      <point x="101" y="413" type="line"/>
      <point x="414" y="413" type="line"/>
      <point x="414" y="701" type="line"/>
      <point x="469" y="701" type="line"/>
      <point x="469" y="413" type="line"/>
    </contour>
    <contour>
      <point x="747" y="177" type="curve" smooth="yes"/>
      <point x="747" y="251" type="line" smooth="yes"/>
      <point x="747" y="342"/>
      <point x="687" y="358"/>
      <point x="653" y="358" type="curve" smooth="yes"/>
      <point x="469" y="358" type="line"/>
      <point x="469" y="45" type="line"/>
      <point x="479" y="44"/>
      <point x="519" y="39"/>
      <point x="579" y="39" type="curve" smooth="yes"/>
      <point x="686" y="39"/>
      <point x="747" y="54"/>
    </contour>
  </outline>
  <guideline angle="0" x="0" y="980"/>
  <guideline angle="0" x="0" y="991"/>
  <guideline angle="0" x="0" y="1057"/>
</glyph>
<glyph name="uni040B" format="1">
  <advance width="582" height="962"/>
  <unicode hex="040B"/>
  <outline>
    <component base="T"/>
    <contour>
      <point x="372" y="510" type="curve" smooth="yes"/>
      <point x="483" y="510"/>
      <point x="546" y="452"/>
      <point x="546" y="346" type="curve" smooth="yes"/>
      <point x="546" y="0" type="line"/>
      <point x="490" y="0" type="line"/>
      <point x="490" y="343" type="line" smooth="yes"/>
      <point x="490" y="434"/>
      <point x="425" y="460"/>
      <point x="361" y="460" type="curve" smooth="yes"/>
      <point x="315" y="460"/>
      <point x="273" y="448"/>
      <point x="232" y="425" type="curve"/>
      <point x="232" y="467" type="line"/>
      <point x="270" y="493"/>
      <point x="322" y="510"/>
    </contour>
  </outline>
</glyph>
<glyph name="uni040F" format="2">
  <advance width="518"/>
  <unicode hex="040F"/>
  <outline>
    <contour>
      <point x="474" y="700" type="line"/>
      <point x="474" y="0" type="line"/>
      <point x="284" y="0" type="line"/>
      <point x="282" y="-107" type="line"/>
      <point x="235" y="-107" type="line"/>
      <point x="233" y="0" type="line"/>
      <point x="43" y="0" type="line"/>
      <point x="43" y="700" type="line"/>
      <point x="101" y="700" type="line"/>
      <point x="101" y="57" type="line"/>
      <point x="417" y="57" type="line"/>
      <point x="417" y="700" type="line"/>
    </contour>
  </outline>
</glyph>
<glyph name="uni0414" format="2">
  <advance width="555"/>
  <unicode hex="0414"/>
  <outline>
    <contour>
      <point x="482" y="56" type="line"/>
      <point x="544" y="56" type="line"/>
      <point x="544" y="-106" type="line"/>
      <point x="498" y="-106" type="line"/>
      <point x="488" y="-1" type="line"/>
      <point x="66" y="-1" type="line"/>
      <point x="56" y="-106" type="line"/>
      <point x="11" y="-106" type="line"/>
      <point x="11" y="56" type="line"/>
      <point x="75" y="56" type="line"/>
      <point x="226" y="557" type="line" smooth="yes"/>
      <point x="239" y="600"/>
      <point x="260" y="700"/>
      <point x="380" y="700" type="curve" smooth="yes"/>
      <point x="482" y="700" type="line"/>
    </contour>
    <contour>
      <point x="425" y="56" type="line"/>
      <point x="425" y="647" type="line"/>
      <point x="386" y="647" type="line" smooth="yes"/>
      <point x="333" y="647"/>
      <point x="303" y="621"/>
      <point x="290" y="578" type="curve" smooth="yes"/>
      <point x="131" y="56" type="line"/>
    </contour>
  </outline>
</glyph>
<glyph name="uni0416" format="1">
  <advance width="680" height="962"/>
  <unicode hex="0416"/>
  <outline>
    <contour>
      <point x="587" y="0" type="line"/>
      <point x="385" y="322" type="line"/>
      <point x="368" y="322" type="line"/>
      <point x="368" y="0" type="line"/>
      <point x="311" y="0" type="line"/>
      <point x="311" y="322" type="line"/>
      <point x="295" y="322" type="line"/>
      <point x="92" y="0" type="line"/>
      <point x="23" y="0" type="line"/>
      <point x="244" y="351" type="line"/>
      <point x="41" y="700" type="line"/>
      <point x="105" y="700" type="line"/>
      <point x="294" y="377" type="line"/>
      <point x="311" y="377" type="line"/>
      <point x="311" y="700" type="line"/>
      <point x="368" y="700" type="line"/>
      <point x="368" y="377" type="line"/>
      <point x="386" y="377" type="line"/>
      <point x="578" y="700" type="line"/>
      <point x="640" y="700" type="line"/>
      <point x="437" y="351" type="line"/>
      <point x="656" y="0" type="line"/>
    </contour>
  </outline>
</glyph>
<glyph name="uni0417" format="2">
  <advance width="461"/>
  <unicode hex="0417"/>
  <outline>
    <contour>
      <point x="102" y="412" type="line"/>
      <point x="226" y="412" type="line" smooth="yes"/>
      <point x="296" y="412"/>
      <point x="348" y="460"/>
      <point x="348" y="535" type="curve" smooth="yes"/>
      <point x="348" y="620"/>
      <point x="292" y="660"/>
      <point x="194" y="660" type="curve" smooth="yes"/>
      <point x="144" y="660"/>
      <point x="86" y="639"/>
      <point x="86" y="639" type="curve"/>
      <point x="69" y="677" type="line"/>
      <point x="69" y="677"/>
      <point x="129" y="710"/>
      <point x="211" y="710" type="curve" smooth="yes"/>
      <point x="344" y="710"/>
      <point x="404" y="626"/>
      <point x="404" y="538" type="curve" smooth="yes"/>
      <point x="404" y="487"/>
      <point x="391" y="425"/>
      <point x="313" y="386" type="curve"/>
      <point x="388" y="356"/>
      <point x="433" y="300"/>
      <point x="433" y="212" type="curve" smooth="yes"/>
      <point x="433" y="101"/>
      <point x="364" y="-10"/>
      <point x="177" y="-10" type="curve" smooth="yes"/>
      <point x="96" y="-10"/>
      <point x="16" y="23"/>
      <point x="16" y="23" type="curve"/>
      <point x="28" y="69" type="line"/>
      <point x="28" y="69"/>
      <point x="103" y="40"/>
      <point x="176" y="40" type="curve" smooth="yes"/>
      <point x="312" y="40"/>
      <point x="378" y="110"/>
      <point x="378" y="212" type="curve" smooth="yes"/>
      <point x="378" y="317"/>
      <point x="298" y="355"/>
      <point x="192" y="355" type="curve" smooth="yes"/>
      <point x="120" y="355" type="line"/>
    </contour>
  </outline>
</glyph>
<glyph name="uni041B" format="2">
  <advance width="535" height="962"/>
  <unicode hex="041B"/>
  <outline>
    <contour>
      <point x="401" y="700" type="curve" smooth="yes"/>
      <point x="503" y="700" type="line"/>
      <point x="503" y="0" type="line"/>
      <point x="446" y="0" type="line"/>
      <point x="446" y="647" type="line"/>
      <point x="407" y="647" type="line" smooth="yes"/>
      <point x="354" y="647"/>
      <point x="324" y="621"/>
      <point x="311" y="578" type="curve" smooth="yes"/>
      <point x="169" y="112" type="line" smooth="yes"/>
      <point x="147" y="40"/>
      <point x="126" y="4"/>
      <point x="66" y="-11" type="curve"/>
      <point x="29" y="20" type="line"/>
      <point x="87" y="38"/>
      <point x="110" y="102"/>
      <point x="117" y="124" type="curve" smooth="yes"/>
      <point x="247" y="557" type="line" smooth="yes"/>
      <point x="260" y="600"/>
      <point x="281" y="700"/>
    </contour>
  </outline>
</glyph>
<glyph name="uni0423" format="1">
  <advance width="484" height="962"/>
  <unicode hex="0423"/>
  <outline>
    <contour>
      <point x="414" y="700" type="line"/>
      <point x="476" y="700" type="line"/>
      <point x="202" y="111" type="line" smooth="yes"/>
      <point x="168" y="39"/>
      <point x="141" y="3"/>
      <point x="78" y="-12" type="curve"/>
      <point x="41" y="19" type="line"/>
      <point x="102" y="37"/>
      <point x="137" y="101"/>
      <point x="147" y="123" type="curve" smooth="yes"/>
      <point x="211" y="262" type="line"/>
      <point x="7" y="700" type="line"/>
      <point x="69" y="700" type="line"/>
      <point x="241" y="328" type="line"/>
    </contour>
  </outline>
</glyph>
<glyph name="uni0426" format="2">
  <advance width="555"/>
  <unicode hex="0426"/>
  <outline>
    <contour>
      <point x="471" y="57" type="line"/>
      <point x="529" y="57" type="line"/>
      <point x="529" y="-105" type="line"/>
      <point x="483" y="-105" type="line"/>
      <point x="473" y="0" type="line"/>
      <point x="40" y="0" type="line"/>
      <point x="40" y="700" type="line"/>
      <point x="98" y="700" type="line"/>
      <point x="98" y="57" type="line"/>
      <point x="414" y="57" type="line"/>
      <point x="414" y="700" type="line"/>
      <point x="471" y="700" type="line"/>
    </contour>
  </outline>
</glyph>
<glyph name="uni0427" format="2">
  <advance width="489"/>
  <unicode hex="0427"/>
  <outline>
    <contour>
      <point x="467" y="700" type="line"/>
      <point x="467" y="0" type="line"/>
      <point x="410" y="0" type="line"/>
      <point x="410" y="306" type="line"/>
      <point x="372" y="264"/>
      <point x="294" y="245"/>
      <point x="231" y="245" type="curve" smooth="yes"/>
      <point x="97" y="245"/>
      <point x="23" y="327"/>
      <point x="23" y="455" type="curve" smooth="yes"/>
      <point x="23" y="700" type="line"/>
      <point x="79" y="700" type="line"/>
      <point x="79" y="453" type="line" smooth="yes"/>
      <point x="79" y="351"/>
      <point x="140" y="300"/>
      <point x="243" y="300" type="curve" smooth="yes"/>
      <point x="321" y="300"/>
      <point x="410" y="331"/>
      <point x="410" y="423" type="curve" smooth="yes"/>
      <point x="410" y="700" type="line"/>
    </contour>
  </outline>
</glyph>
<glyph name="uni0429" format="2">
  <advance width="681" height="962"/>
  <unicode hex="0429"/>
  <outline>
    <component base="uni0428"/>
    <contour>
      <point x="570" y="57" type="line"/>
      <point x="655" y="57" type="line"/>
      <point x="655" y="-105" type="line"/>
      <point x="609" y="-105" type="line"/>
      <point x="600" y="0" type="line"/>
      <point x="570" y="0" type="line"/>
    </contour>
  </outline>
</glyph>
<glyph name="uni042A" format="2">
  <advance width="520"/>
  <unicode hex="042A"/>
  <outline>
    <component base="uni042C" xOffset="64"/>
    <contour>
      <point x="0" y="700" type="line"/>
      <point x="137" y="700" type="line"/>
      <point x="137" y="649" type="line"/>
      <point x="108" y="649" type="line"/>
      <point x="0" y="651" type="line"/>
    </contour>
  </outline>
</glyph>
<glyph name="uni042C" format="1">
  <advance width="455" height="962"/>
  <unicode hex="042C"/>
  <outline>
    <contour>
      <point x="275" y="412" type="line" smooth="yes"/>
      <point x="354" y="412"/>
      <point x="428" y="363"/>
      <point x="428" y="251" type="curve" smooth="yes"/>
      <point x="428" y="168" type="line" smooth="yes"/>
      <point x="428" y="17"/>
      <point x="330" y="-11"/>
      <point x="201" y="-11" type="curve" smooth="yes"/>
      <point x="152" y="-11"/>
      <point x="41" y="-1"/>
      <point x="43" y="-1" type="curve"/>
      <point x="43" y="700" type="line"/>
      <point x="100" y="700" type="line"/>
      <point x="100" y="412" type="line"/>
    </contour>
    <contour>
      <point x="373" y="175" type="curve" smooth="yes"/>
      <point x="373" y="249" type="line" smooth="yes"/>
      <point x="373" y="341"/>
      <point x="314" y="357"/>
      <point x="279" y="357" type="curve" smooth="yes"/>
      <point x="100" y="357" type="line"/>
      <point x="100" y="45" type="line"/>
      <point x="106" y="45"/>
      <point x="145" y="37"/>
      <point x="205" y="37" type="curve" smooth="yes"/>
      <point x="313" y="37"/>
      <point x="373" y="51"/>
    </contour>
  </outline>
</glyph>
<glyph name="uni042D" format="2">
  <advance width="423"/>
  <unicode hex="042D"/>
  <outline>
    <contour>
      <point x="76" y="639" type="curve"/>
      <point x="59" y="677" type="line"/>
      <point x="101" y="699"/>
      <point x="149" y="710"/>
      <point x="197.55" y="710" type="curve" smooth="yes"/>
      <point x="327.35" y="710"/>
      <point x="396" y="634.05"/>
      <point x="396" y="510" type="curve" smooth="yes"/>
      <point x="396" y="184" type="line" smooth="yes"/>
      <point x="396" y="57.25"/>
      <point x="328.3" y="-10"/>
      <point x="197.05" y="-10" type="curve" smooth="yes"/>
      <point x="144" y="-10"/>
      <point x="90" y="1"/>
      <point x="34" y="23" type="curve"/>
      <point x="46" y="69" type="line"/>
      <point x="102" y="51"/>
      <point x="152" y="40"/>
      <point x="199.75" y="40" type="curve" smooth="yes"/>
      <point x="302" y="40"/>
      <point x="339" y="91.65"/>
      <point x="339" y="186" type="curve" smooth="yes"/>
      <point x="339" y="357" type="line"/>
      <point x="167" y="357" type="line"/>
      <point x="149" y="412" type="line"/>
      <point x="339" y="412" type="line"/>
      <point x="339" y="514" type="line" smooth="yes"/>
      <point x="339" y="613.7"/>
      <point x="286.7" y="660"/>
      <point x="184.8" y="660" type="curve" smooth="yes"/>
      <point x="148" y="660"/>
      <point x="113" y="654"/>
    </contour>
  </outline>
</glyph>
<glyph name="uni0436" format="2">
  <advance width="533" height="962"/>
  <unicode hex="0436"/>
  <outline>
    <contour>
      <point x="516" y="500" type="line"/>
      <point x="363" y="250" type="line"/>
      <point x="514" y="0" type="line"/>
      <point x="447" y="0" type="line"/>
      <point x="314" y="223" type="line"/>
      <point x="295" y="223" type="line"/>
      <point x="295" y="0" type="line"/>
      <point x="238" y="0" type="line"/>
      <point x="238" y="223" type="line"/>
      <point x="223" y="223" type="line"/>
      <point x="84" y="0" type="line"/>
      <point x="17" y="0" type="line"/>
      <point x="177" y="250" type="line"/>
      <point x="24" y="500" type="line"/>
      <point x="89" y="500" type="line"/>
      <point x="221" y="278" type="line"/>
      <point x="238" y="278" type="line"/>
      <point x="238" y="500" type="line"/>
      <point x="295" y="500" type="line"/>
      <point x="295" y="278" type="line"/>
      <point x="315" y="278" type="line"/>
      <point x="453" y="500" type="line"/>
    </contour>
  </outline>
</glyph>
<glyph name="uni0438" format="2">
  <advance width="443"/>
  <unicode hex="0438"/>
  <outline>
    <contour>
      <point x="95" y="500" type="line"/>
      <point x="95" y="85" type="line"/>
      <point x="338" y="500" type="line"/>
      <point x="407" y="500" type="line"/>
      <point x="407" y="0" type="line"/>
      <point x="350" y="0" type="line"/>
      <point x="350" y="415" type="line"/>
      <point x="107" y="0" type="line"/>
      <point x="38" y="0" type="line"/>
      <point x="38" y="500" type="line"/>
    </contour>
  </outline>
</glyph>
<glyph name="uni0446" format="1">
  <advance width="480" height="962"/>
  <unicode hex="0446"/>
  <outline>
    <contour>
      <point x="379" y="57" type="line"/>
      <point x="463" y="57" type="line"/>
      <point x="463" y="-105" type="line"/>
      <point x="417" y="-105" type="line"/>
      <point x="407" y="0" type="line"/>
      <point x="379" y="0" type="line"/>
    </contour>
    <contour>
      <point x="407" y="500" type="line"/>
      <point x="407" y="0" type="line"/>
      <point x="37" y="0" type="line"/>
      <point x="37" y="500" type="line"/>
      <point x="94" y="500" type="line"/>
      <point x="94" y="57" type="line"/>
      <point x="350" y="57" type="line"/>
      <point x="350" y="500" type="line"/>
    </contour>
  </outline>
</glyph>
<glyph name="uni0447" format="1">
  <advance width="439" height="962"/>
  <unicode hex="0447"/>
  <outline>
    <contour>
      <point x="347" y="0" type="line"/>
      <point x="347" y="167" type="line"/>
      <point x="314" y="127"/>
      <point x="258" y="108"/>
      <point x="208" y="108" type="curve" smooth="yes"/>
      <point x="97" y="108"/>
      <point x="32" y="161"/>
      <point x="32" y="275" type="curve" smooth="yes"/>
      <point x="32" y="500" type="line"/>
      <point x="90" y="500" type="line"/>
      <point x="90" y="279" type="line" smooth="yes"/>
      <point x="90" y="186"/>
      <point x="158" y="161"/>
      <point x="220" y="161" type="curve" smooth="yes"/>
      <point x="291" y="161"/>
      <point x="347" y="221"/>
      <point x="347" y="291" type="curve" smooth="yes"/>
      <point x="347" y="409" type="line" smooth="yes"/>
      <point x="347" y="455"/>
      <point x="369" y="496"/>
      <point x="416" y="512" type="curve"/>
      <point x="436" y="470" type="line"/>
      <point x="418" y="462"/>
      <point x="403" y="450"/>
      <point x="403" y="408" type="curve" smooth="yes"/>
      <point x="403" y="0" type="line"/>
    </contour>
  </outline>
</glyph>
<glyph name="uni0448" format="1">
  <advance width="615" height="962"/>
  <unicode hex="0448"/>
  <outline>
    <contour>
      <point x="513" y="500" type="line"/>
      <point x="570" y="500" type="line"/>
      <point x="570" y="0" type="line"/>
      <point x="44" y="0" type="line"/>
      <point x="44" y="500" type="line"/>
      <point x="102" y="500" type="line"/>
      <point x="102" y="57" type="line"/>
      <point x="278" y="57" type="line"/>
      <point x="278" y="500" type="line"/>
      <point x="336" y="500" type="line"/>
      <point x="336" y="57" type="line"/>
      <point x="513" y="57" type="line"/>
    </contour>
  </outline>
</glyph>
<glyph name="uni0449" format="2">
  <advance width="639"/>
  <unicode hex="0449"/>
  <outline>
    <component base="uni0448"/>
    <contour>
      <point x="552" y="57" type="line"/>
      <point x="620" y="57" type="line"/>
      <point x="620" y="-105" type="line"/>
      <point x="574" y="-105" type="line"/>
      <point x="564" y="0" type="line"/>
      <point x="552" y="0" type="line"/>
    </contour>
  </outline>
</glyph>
<glyph name="uni044C" format="1">
  <advance width="456" height="962"/>
  <unicode hex="044C"/>
  <outline>
    <contour>
      <point x="272" y="303" type="line" smooth="yes"/>
      <point x="352" y="303"/>
      <point x="424" y="249"/>
      <point x="424" y="152" type="curve" smooth="yes"/>
      <point x="424" y="69"/>
      <point x="367" y="-8"/>
      <point x="241" y="-8" type="curve" smooth="yes"/>
      <point x="156" y="-8"/>
      <point x="54" y="2"/>
      <point x="40" y="3" type="curve"/>
      <point x="40" y="500" type="line"/>
      <point x="97" y="500" type="line"/>
      <point x="97" y="303" type="line"/>
    </contour>
    <contour>
      <point x="231" y="45" type="curve" smooth="yes"/>
      <point x="314" y="45"/>
      <point x="368" y="90"/>
      <point x="368" y="149" type="curve" smooth="yes"/>
      <point x="368" y="227"/>
      <point x="312" y="248"/>
      <point x="277" y="248" type="curve" smooth="yes"/>
      <point x="97" y="248" type="line"/>
      <point x="97" y="49" type="line"/>
      <point x="97" y="49"/>
      <point x="166" y="45"/>
    </contour>
  </outline>
</glyph>
<glyph name="uni044E" format="2">
  <advance width="621" height="962"/>
  <unicode hex="044E"/>
  <outline>
    <component base="o" xOffset="189"/>
    <component base="dotlessi"/>
    <contour>
      <point x="67" y="280" type="line"/>
      <point x="246" y="280" type="line"/>
      <point x="246" y="222" type="line"/>
      <point x="67" y="222" type="line"/>
    </contour>
  </outline>
</glyph>
<glyph name="uni0452" format="1">
  <advance width="468" height="962"/>
  <unicode hex="0452"/>
  <outline>
    <contour>
      <point x="0" y="618" type="line"/>
      <point x="236" y="618" type="line"/>
      <point x="236" y="565" type="line"/>
      <point x="0" y="565" type="line"/>
    </contour>
    <contour>
      <point x="265" y="510" type="curve" smooth="yes"/>
      <point x="376" y="510"/>
      <point x="435" y="452"/>
      <point x="435" y="346" type="curve" smooth="yes"/>
      <point x="435" y="-63" type="line" smooth="yes"/>
      <point x="435" y="-145"/>
      <point x="404" y="-185"/>
      <point x="328" y="-210" type="curve"/>
      <point x="312" y="-167" type="line"/>
      <point x="359" y="-150"/>
      <point x="379" y="-110"/>
      <point x="379" y="-62" type="curve" smooth="yes"/>
      <point x="379" y="343" type="line" smooth="yes"/>
      <point x="379" y="434"/>
      <point x="318" y="460"/>
      <point x="254" y="460" type="curve" smooth="yes"/>
      <point x="208" y="460"/>
      <point x="161" y="448"/>
      <point x="120" y="425" type="curve"/>
      <point x="120" y="0" type="line"/>
      <point x="63" y="0" type="line"/>
      <point x="63" y="700" type="line"/>
      <point x="120" y="700" type="line"/>
      <point x="120" y="467" type="line"/>
      <point x="158" y="493"/>
      <point x="215" y="510"/>
    </contour>
  </outline>
</glyph>
<glyph name="uni0454" format="1">
  <advance width="381" height="962"/>
  <unicode hex="0454"/>
  <outline>
    <contour>
      <point x="285" y="247" type="line"/>
      <point x="60" y="247" type="line"/>
      <point x="60" y="301" type="line"/>
      <point x="305" y="301" type="line"/>
    </contour>
    <contour>
      <point x="335" y="433" type="line"/>
      <point x="300" y="449"/>
      <point x="256" y="459"/>
      <point x="217" y="459" type="curve" smooth="yes"/>
      <point x="123" y="459"/>
      <point x="86" y="397"/>
      <point x="85" y="311" type="curve" smooth="yes"/>
      <point x="84" y="186" type="line" smooth="yes"/>
      <point x="83" y="84"/>
      <point x="125" y="41"/>
      <point x="221" y="41" type="curve" smooth="yes"/>
      <point x="280" y="41"/>
      <point x="342" y="56"/>
      <point x="340" y="55" type="curve"/>
      <point x="351" y="5" type="line"/>
      <point x="310" y="-6"/>
      <point x="263" y="-12"/>
      <point x="219" y="-11" type="curve" smooth="yes"/>
      <point x="104" y="-9"/>
      <point x="29" y="47"/>
      <point x="29" y="174" type="curve" smooth="yes"/>
      <point x="29" y="319" type="line" smooth="yes"/>
      <point x="29" y="433"/>
      <point x="91" y="510"/>
      <point x="215" y="510" type="curve" smooth="yes"/>
      <point x="260" y="510"/>
      <point x="307" y="497"/>
      <point x="349" y="478" type="curve"/>
    </contour>
  </outline>
</glyph>
<glyph name="uni045A" format="1">
  <advance width="760" height="962"/>
  <unicode hex="045A"/>
  <outline>
    <contour>
      <point x="578" y="303" type="line" smooth="yes"/>
      <point x="658" y="303"/>
      <point x="731" y="248"/>
      <point x="731" y="151" type="curve" smooth="yes"/>
      <point x="731" y="68"/>
      <point x="673" y="-9"/>
      <point x="547" y="-9" type="curve" smooth="yes"/>
      <point x="465" y="-9"/>
      <point x="344" y="2"/>
      <point x="344" y="2" type="curve"/>
      <point x="344" y="248" type="line"/>
      <point x="89" y="248" type="line"/>
      <point x="89" y="0" type="line"/>
      <point x="32" y="0" type="line"/>
      <point x="32" y="500" type="line"/>
      <point x="89" y="500" type="line"/>
      <point x="89" y="303" type="line"/>
      <point x="344" y="303" type="line"/>
      <point x="344" y="500" type="line"/>
      <point x="401" y="500" type="line"/>
      <point x="401" y="303" type="line"/>
    </contour>
    <contour>
      <point x="537" y="44" type="curve" smooth="yes"/>
      <point x="620" y="44"/>
      <point x="675" y="89"/>
      <point x="675" y="148" type="curve" smooth="yes"/>
      <point x="675" y="226"/>
      <point x="618" y="248"/>
      <point x="583" y="248" type="curve" smooth="yes"/>
      <point x="401" y="248" type="line"/>
      <point x="401" y="48" type="line"/>
      <point x="401" y="48"/>
      <point x="472" y="44"/>
    </contour>
  </outline>
</glyph>
<glyph name="uni045F" format="1">
  <advance width="444" height="962"/>
  <unicode hex="045F"/>
  <outline>
    <contour>
      <point x="404" y="500" type="line"/>
      <point x="404" y="0" type="line"/>
      <point x="245" y="0" type="line"/>
      <point x="243" y="-107" type="line"/>
      <point x="196" y="-107" type="line"/>
      <point x="194" y="0" type="line"/>
      <point x="35" y="0" type="line"/>
      <point x="35" y="500" type="line"/>
      <point x="93" y="500" type="line"/>
      <point x="93" y="57" type="line"/>
      <point x="347" y="57" type="line"/>
      <point x="347" y="500" type="line"/>
    </contour>
  </outline>
</glyph>
<glyph name="uni046A" format="1">
  <advance width="602" height="962"/>
  <unicode hex="046A"/>
  <outline>
    <contour>
      <point x="372" y="376" type="line" smooth="yes"/>
      <point x="498" y="376"/>
      <point x="563" y="305"/>
      <point x="563" y="184" type="curve" smooth="yes"/>
      <point x="563" y="0" type="line"/>
      <point x="507" y="0" type="line"/>
      <point x="507" y="194" type="line" smooth="yes"/>
      <point x="507" y="282"/>
      <point x="452" y="325"/>
      <point x="372" y="325" type="curve" smooth="yes"/>
      <point x="326" y="325" type="line"/>
      <point x="326" y="0" type="line"/>
      <point x="269" y="0" type="line"/>
      <point x="269" y="325" type="line"/>
      <point x="227" y="325" type="line" smooth="yes"/>
      <point x="147" y="325"/>
      <point x="92" y="282"/>
      <point x="92" y="194" type="curve" smooth="yes"/>
      <point x="92" y="0" type="line"/>
      <point x="36" y="0" type="line"/>
      <point x="36" y="184" type="line" smooth="yes"/>
      <point x="36" y="305"/>
      <point x="101" y="376"/>
      <point x="227" y="376" type="curve" smooth="yes"/>
      <point x="252" y="376" type="line"/>
      <point x="62" y="700" type="line"/>
      <point x="535" y="700" type="line"/>
      <point x="345" y="376" type="line"/>
    </contour>
    <contour>
      <point x="297" y="405" type="line"/>
      <point x="440" y="643" type="line"/>
      <point x="161" y="643" type="line"/>
    </contour>
  </outline>
</glyph>
<glyph name="uni0475" format="1">
  <advance width="449" height="962"/>
  <unicode hex="0475"/>
  <outline>
    <contour>
      <point x="413" y="512" type="curve"/>
      <point x="450" y="478" type="line"/>
      <point x="386" y="457"/>
      <point x="373" y="417"/>
      <point x="364" y="388" type="curve" smooth="yes"/>
      <point x="244" y="0" type="line"/>
      <point x="172" y="0" type="line"/>
      <point x="19" y="500" type="line"/>
      <point x="77" y="500" type="line"/>
      <point x="208" y="71" type="line"/>
      <point x="301" y="376" type="line" smooth="yes"/>
      <point x="326" y="457"/>
      <point x="350" y="499"/>
    </contour>
  </outline>
</glyph>
<glyph name="uni0490" format="2">
  <advance width="383"/>
  <unicode hex="0490"/>
  <outline>
    <component base="Gamma"/>
    <contour>
      <point x="326" y="791" type="line"/>
      <point x="375" y="791" type="line"/>
      <point x="375" y="670" type="line"/>
      <point x="324" y="670" type="line"/>
      <point x="324" y="699" type="line"/>
    </contour>
  </outline>
</glyph>
<glyph name="uni0494" format="1">
  <advance width="446" height="962"/>
  <unicode hex="0494"/>
  <outline>
    <component base="Gamma"/>
    <contour>
      <point x="237" y="510" type="curve" smooth="yes"/>
      <point x="348" y="510"/>
      <point x="411" y="452"/>
      <point x="411" y="346" type="curve" smooth="yes"/>
      <point x="411" y="132" type="line" smooth="yes"/>
      <point x="411" y="54"/>
      <point x="379" y="9"/>
      <point x="306" y="-13" type="curve"/>
      <point x="288" y="30" type="line"/>
      <point x="333" y="45"/>
      <point x="355" y="79"/>
      <point x="355" y="132" type="curve" smooth="yes"/>
      <point x="355" y="343" type="line" smooth="yes"/>
      <point x="355" y="434"/>
      <point x="290" y="460"/>
      <point x="226" y="460" type="curve" smooth="yes"/>
      <point x="180" y="460"/>
      <point x="138" y="448"/>
      <point x="97" y="425" type="curve"/>
      <point x="97" y="467" type="line"/>
      <point x="135" y="493"/>
      <point x="187" y="510"/>
    </contour>
  </outline>
</glyph>
<glyph name="uni049B" format="1">
  <advance width="449" height="962"/>
  <unicode hex="049B"/>
  <outline>
    <contour>
      <point x="400" y="0" type="line"/>
      <point x="335" y="0" type="line"/>
      <point x="150" y="254" type="line"/>
      <point x="95" y="198" type="line"/>
      <point x="95" y="0" type="line"/>
      <point x="38" y="0" type="line"/>
      <point x="38" y="512" type="line"/>
      <point x="95" y="499" type="line"/>
      <point x="95" y="274" type="line"/>
      <point x="302" y="501" type="line"/>
      <point x="376" y="501" type="line"/>
      <point x="188" y="296" type="line"/>
    </contour>
    <contour>
      <point x="341" y="48" type="line"/>
      <point x="419" y="48" type="line"/>
      <point x="419" y="-104" type="line"/>
      <point x="373" y="-104" type="line"/>
      <point x="363" y="0" type="line"/>
      <point x="341" y="0" type="line"/>
    </contour>
  </outline>
</glyph>
<glyph name="uni049C" format="2">
  <advance width="535"/>
  <unicode hex="049C"/>
  <outline>
    <contour>
      <point x="512" y="0" type="line"/>
      <point x="445" y="0" type="line"/>
      <point x="211" y="357" type="line"/>
      <point x="181" y="357" type="line"/>
      <point x="181" y="285" type="line"/>
      <point x="123" y="285" type="line"/>
      <point x="123" y="357" type="line"/>
      <point x="97" y="357" type="line"/>
      <point x="97" y="0" type="line"/>
      <point x="40" y="0" type="line"/>
      <point x="40" y="700" type="line"/>
      <point x="97" y="700" type="line"/>
      <point x="97" y="412" type="line"/>
      <point x="123" y="412" type="line"/>
      <point x="123" y="484" type="line"/>
      <point x="181" y="484" type="line"/>
      <point x="181" y="412" type="line"/>
      <point x="202" y="412" type="line"/>
      <point x="395" y="700" type="line"/>
      <point x="460" y="700" type="line"/>
      <point x="251" y="394" type="line"/>
    </contour>
  </outline>
</glyph>
<glyph name="uni04A0" format="1">
  <advance width="527" height="962"/>
  <unicode hex="04A0"/>
  <outline>
    <component base="K" xOffset="67"/>
    <contour>
      <point x="1" y="700" type="line"/>
      <point x="137" y="700" type="line"/>
      <point x="137" y="648" type="line"/>
      <point x="116" y="648" type="line"/>
      <point x="1" y="651" type="line"/>
    </contour>
  </outline>
</glyph>
<glyph name="uni04A1" format="2">
  <advance width="503" height="962"/>
  <unicode hex="04A1"/>
  <outline>
    <contour>
      <point x="385" y="118" type="line" smooth="yes"/>
      <point x="419" y="71"/>
      <point x="450" y="48"/>
      <point x="476" y="48" type="curve" smooth="yes"/>
      <point x="480" y="48" type="line"/>
      <point x="480" y="0" type="line"/>
      <point x="478" y="0" type="line"/>
      <point x="407" y="0"/>
      <point x="362" y="58"/>
      <point x="324" y="111" type="curve" smooth="yes"/>
      <point x="220" y="254" type="line"/>
      <point x="165" y="198" type="line"/>
      <point x="165" y="0" type="line"/>
      <point x="108" y="0" type="line"/>
      <point x="108" y="449" type="line"/>
      <point x="0" y="451" type="line"/>
      <point x="0" y="500" type="line"/>
      <point x="165" y="500" type="line"/>
      <point x="165" y="274" type="line"/>
      <point x="372" y="500" type="line"/>
      <point x="446" y="500" type="line"/>
      <point x="258" y="296" type="line"/>
    </contour>
  </outline>
</glyph>
<glyph name="uni04A2" format="1">
  <advance width="555" height="962"/>
  <unicode hex="04A2"/>
  <outline>
    <component base="H"/>
    <contour>
      <point x="444" y="57" type="line"/>
      <point x="528" y="57" type="line"/>
      <point x="528" y="-105" type="line"/>
      <point x="482" y="-105" type="line"/>
      <point x="472" y="0" type="line"/>
      <point x="444" y="0" type="line"/>
    </contour>
  </outline>
</glyph>
<glyph name="uni04A4" format="2">
  <advance width="592"/>
  <unicode hex="04A4"/>
  <outline>
    <component base="H"/>
    <contour>
      <point x="443" y="700" type="line"/>
      <point x="579" y="700" type="line"/>
      <point x="579" y="651" type="line"/>
      <point x="464" y="648" type="line"/>
      <point x="443" y="648" type="line"/>
    </contour>
  </outline>
</glyph>
<glyph name="uni04A5" format="2">
  <advance width="548"/>
  <unicode hex="04A5"/>
  <outline>
    <component base="uni043D"/>
    <contour>
      <point x="374" y="500" type="line"/>
      <point x="513" y="500" type="line"/>
      <point x="513" y="451" type="line"/>
      <point x="406" y="448" type="line"/>
      <point x="374" y="448" type="line"/>
    </contour>
  </outline>
</glyph>
<glyph name="uni04B2" format="2">
  <advance width="559" height="962"/>
  <unicode hex="04B2"/>
  <outline>
    <contour>
      <point x="469" y="57" type="line"/>
      <point x="537" y="57" type="line"/>
      <point x="537" y="-105" type="line"/>
      <point x="491" y="-105" type="line"/>
      <point x="481" y="0" type="line"/>
      <point x="469" y="0" type="line"/>
    </contour>
    <contour>
      <point x="279" y="406" type="line"/>
      <point x="454" y="700" type="line"/>
      <point x="516" y="700" type="line"/>
      <point x="313" y="352" type="line"/>
      <point x="532" y="0" type="line"/>
      <point x="463" y="0" type="line"/>
      <point x="279" y="294" type="line"/>
      <point x="94" y="0" type="line"/>
      <point x="25" y="0" type="line"/>
      <point x="246" y="352" type="line"/>
      <point x="43" y="700" type="line"/>
      <point x="107" y="700" type="line"/>
    </contour>
  </outline>
</glyph>
<glyph name="uni04B6" format="1">
  <advance width="543" height="962"/>
  <unicode hex="04B6"/>
  <outline>
    <component base="uni0427"/>
    <contour>
      <point x="443" y="57" type="line"/>
      <point x="523" y="57" type="line"/>
      <point x="523" y="-105" type="line"/>
      <point x="475" y="-105" type="line"/>
      <point x="467" y="0" type="line"/>
      <point x="443" y="0" type="line"/>
    </contour>
  </outline>
</glyph>
<glyph name="uni04B7" format="2">
  <advance width="479" height="962"/>
  <unicode hex="04B7"/>
  <outline>
    <component base="uni0447"/>
    <contour>
      <point x="378" y="57" type="line"/>
      <point x="461" y="57" type="line"/>
      <point x="461" y="-105" type="line"/>
      <point x="415" y="-105" type="line"/>
      <point x="405" y="0" type="line"/>
      <point x="378" y="0" type="line"/>
    </contour>
  </outline>
</glyph>
<glyph name="uni04BB" format="2">
  <advance width="443" height="962"/>
  <unicode hex="04BB"/>
  <outline>
    <contour>
      <point x="38" y="0" type="line"/>
      <point x="38" y="500" type="line"/>
      <point x="95" y="500" type="line"/>
      <point x="95" y="330" type="line"/>
      <point x="128" y="369"/>
      <point x="181" y="393"/>
      <point x="234" y="393" type="curve" smooth="yes"/>
      <point x="334" y="393"/>
      <point x="409" y="340"/>
      <point x="409" y="226" type="curve" smooth="yes"/>
      <point x="409" y="0" type="line"/>
      <point x="352" y="0" type="line"/>
      <point x="352" y="222" type="line" smooth="yes"/>
      <point x="352" y="315"/>
      <point x="284" y="340"/>
      <point x="222" y="340" type="curve" smooth="yes"/>
      <point x="151" y="340"/>
      <point x="95" y="280"/>
      <point x="95" y="210" type="curve" smooth="yes"/>
      <point x="95" y="0" type="line"/>
    </contour>
  </outline>
</glyph>
<glyph name="uni04CB" format="2">
  <advance width="489"/>
  <unicode hex="04CB"/>
  <outline>
    <component base="uni0427"/>
    <contour>
      <point x="352" y="57" type="line"/>
      <point x="438" y="57" type="line"/>
      <point x="438" y="0" type="line"/>
      <point x="408" y="0" type="line"/>
      <point x="398" y="-105" type="line"/>
      <point x="352" y="-105" type="line"/>
    </contour>
  </outline>
  <guideline angle="90" x="134.436" y="0"/>
  <guideline angle="0" x="0" y="567"/>
</glyph>
<glyph name="uni04F7" format="1">
  <advance width="317" height="962"/>
  <unicode hex="04F7"/>
  <outline>
    <component base="uni0433"/>
    <contour>
      <point x="64" y="57" type="line"/>
      <point x="147" y="57" type="line"/>
      <point x="147" y="-105" type="line"/>
      <point x="101" y="-105" type="line"/>
      <point x="91" y="0" type="line"/>
      <point x="64" y="0" type="line"/>
    </contour>
  </outline>
</glyph>
<glyph name="endash" format="2">
	<advance width="443"/>
	<unicode hex="2013"/>
	<outline>
		<contour>
			<point x="34" y="356" type="line"/>
			<point x="34" y="414" type="line"/>
			<point x="409" y="414" type="line"/>
			<point x="409" y="356" type="line"/>
		</contour>
	</outline>
</glyph>
<glyph name="emdash" format="2">
	<advance width="717"/>
	<unicode hex="2014"/>
	<outline>
		<contour>
			<point x="34" y="356" type="line"/>
			<point x="34" y="414" type="line"/>
			<point x="683" y="414" type="line"/>
			<point x="683" y="356" type="line"/>
		</contour>
	</outline>
</glyph>
<glyph name="quoteleft" format="2">
  <advance width="128"/>
  <unicode hex="2018"/>
  <outline>
    <contour>
      <point x="98" y="702" type="line"/>
      <point x="76" y="676"/>
      <point x="68" y="649"/>
      <point x="65" y="627" type="curve"/>
      <point x="83" y="623"/>
      <point x="95" y="610"/>
      <point x="95" y="594" type="curve" smooth="yes"/>
      <point x="95" y="575"/>
      <point x="79" y="561"/>
      <point x="60" y="561" type="curve" smooth="yes"/>
      <point x="43" y="561"/>
      <point x="27" y="574"/>
      <point x="27" y="594" type="curve" smooth="yes"/>
      <point x="27" y="657"/>
      <point x="61" y="696"/>
      <point x="79" y="714" type="curve"/>
    </contour>
  </outline>
</glyph>
<glyph name="quoteright" format="2">
  <advance width="129" height="962"/>
  <unicode hex="2019"/>
  <outline>
    <contour>
      <point x="29" y="559" type="line"/>
      <point x="51" y="585"/>
      <point x="59" y="611"/>
      <point x="60" y="633" type="curve"/>
      <point x="46" y="637"/>
      <point x="33" y="650"/>
      <point x="33" y="666" type="curve" smooth="yes"/>
      <point x="33" y="685"/>
      <point x="49" y="700"/>
      <point x="66" y="700" type="curve" smooth="yes"/>
      <point x="85" y="700"/>
      <point x="101" y="686"/>
      <point x="101" y="666" type="curve" smooth="yes"/>
      <point x="101" y="605"/>
      <point x="68" y="564"/>
      <point x="47" y="546" type="curve"/>
    </contour>
  </outline>
</glyph>
<glyph name="bullet" format="2">
  <advance width="343"/>
  <unicode hex="2022"/>
  <outline>
    <contour>
      <point x="269" y="436" type="curve" smooth="yes"/>
      <point x="297" y="408"/>
      <point x="311" y="375"/>
      <point x="311" y="336" type="curve" smooth="yes"/>
      <point x="311" y="299"/>
      <point x="297" y="264"/>
      <point x="269" y="238" type="curve"/>
      <point x="242" y="210"/>
      <point x="209" y="196"/>
      <point x="170" y="196" type="curve" smooth="yes"/>
      <point x="132" y="196"/>
      <point x="99" y="210"/>
      <point x="70" y="238" type="curve" smooth="yes"/>
      <point x="43" y="264"/>
      <point x="29" y="298"/>
      <point x="29" y="336" type="curve" smooth="yes"/>
      <point x="29" y="376"/>
      <point x="43" y="409"/>
      <point x="70" y="436" type="curve" smooth="yes"/>
      <point x="99" y="464"/>
      <point x="132" y="478"/>
      <point x="170" y="478" type="curve" smooth="yes"/>
      <point x="208" y="478"/>
      <point x="241" y="464"/>
    </contour>
  </outline>
</glyph>
<glyph name="guilsinglleft" format="2">
  <advance width="284"/>
  <unicode hex="2039"/>
  <outline>
    <contour>
      <point x="27" y="267" type="line"/>
      <point x="214" y="455" type="line"/>
      <point x="251" y="417" type="line"/>
      <point x="101" y="267" type="line"/>
      <point x="249" y="114" type="line"/>
      <point x="214" y="79" type="line"/>
    </contour>
  </outline>
</glyph>
<glyph name="guilsinglright" format="1">
  <advance width="284" height="962"/>
  <unicode hex="203A"/>
  <outline>
    <contour>
      <point x="181" y="267" type="line"/>
      <point x="31" y="417" type="line"/>
      <point x="68" y="455" type="line"/>
      <point x="255" y="267" type="line"/>
      <point x="68" y="79" type="line"/>
      <point x="33" y="114" type="line"/>
    </contour>
  </outline>
</glyph>
<glyph name="uni20AE" format="2">
  <advance width="409" height="962"/>
  <unicode hex="20AE"/>
  <outline>
    <component base="T" xOffset="-4"/>
    <contour>
      <point x="335" y="416" type="line"/>
      <point x="358" y="366" type="line"/>
      <point x="66" y="235" type="line"/>
      <point x="44" y="284" type="line"/>
    </contour>
    <contour>
      <point x="334" y="525" type="line"/>
      <point x="357" y="475" type="line"/>
      <point x="65" y="344" type="line"/>
      <point x="43" y="393" type="line"/>
    </contour>
  </outline>
</glyph>
<glyph name="uni20B4" format="1">
  <advance width="525" height="962"/>
  <unicode hex="20B4"/>
  <outline>
    <contour>
      <point x="32" y="394" type="line"/>
      <point x="32" y="449" type="line"/>
      <point x="462" y="449" type="line"/>
      <point x="462" y="394" type="line"/>
    </contour>
    <contour>
      <point x="32" y="295" type="line"/>
      <point x="32" y="350" type="line"/>
      <point x="462" y="350" type="line"/>
      <point x="462" y="295" type="line"/>
    </contour>
    <contour>
      <point x="103" y="624" type="curve"/>
      <point x="87" y="672" type="line"/>
      <point x="134" y="697"/>
      <point x="188" y="709"/>
      <point x="241" y="709" type="curve" smooth="yes"/>
      <point x="349" y="709"/>
      <point x="464" y="664"/>
      <point x="464" y="538" type="curve" smooth="yes"/>
      <point x="464" y="328"/>
      <point x="85" y="369"/>
      <point x="85" y="188" type="curve" smooth="yes"/>
      <point x="85" y="81"/>
      <point x="171" y="42"/>
      <point x="266" y="42" type="curve" smooth="yes"/>
      <point x="334" y="42"/>
      <point x="422" y="71"/>
      <point x="464" y="127" type="curve"/>
      <point x="499" y="92" type="line"/>
      <point x="437" y="20"/>
      <point x="356" y="-12"/>
      <point x="262" y="-12" type="curve" smooth="yes"/>
      <point x="143" y="-12"/>
      <point x="25" y="46"/>
      <point x="25" y="180" type="curve" smooth="yes"/>
      <point x="25" y="426"/>
      <point x="406" y="370"/>
      <point x="406" y="543" type="curve" smooth="yes"/>
      <point x="406" y="632"/>
      <point x="312" y="655"/>
      <point x="240" y="655" type="curve" smooth="yes"/>
      <point x="193" y="655"/>
      <point x="144" y="646"/>
    </contour>
  </outline>
</glyph>
<glyph name="uni20B8" format="2">
  <advance width="409"/>
  <unicode hex="20B8"/>
  <outline>
    <contour>
      <point x="229" y="556" type="line"/>
      <point x="229" y="0" type="line"/>
      <point x="174" y="0" type="line"/>
      <point x="174" y="556" type="line"/>
      <point x="3" y="556" type="line"/>
      <point x="3" y="606" type="line"/>
      <point x="405" y="606" type="line"/>
      <point x="405" y="556" type="line"/>
    </contour>
    <contour>
      <point x="3" y="650" type="line"/>
      <point x="3" y="700" type="line"/>
      <point x="406" y="700" type="line"/>
      <point x="406" y="650" type="line"/>
    </contour>
  </outline>
</glyph>
<glyph name="trademark" format="2">
  <advance width="429" height="962"/>
  <unicode hex="2122"/>
  <outline>
    <contour>
      <point x="128" y="666" type="line"/>
      <point x="128" y="514" type="line"/>
      <point x="95" y="514" type="line"/>
      <point x="95" y="666" type="line"/>
      <point x="23" y="666" type="line"/>
      <point x="23" y="700" type="line"/>
      <point x="234" y="700" type="line"/>
      <point x="294" y="563" type="line"/>
      <point x="352" y="700" type="line"/>
      <point x="394" y="700" type="line"/>
      <point x="394" y="514" type="line"/>
      <point x="363" y="514" type="line"/>
      <point x="363" y="653" type="line"/>
      <point x="304" y="514" type="line"/>
      <point x="283" y="514" type="line"/>
      <point x="225" y="653" type="line"/>
      <point x="225" y="514" type="line"/>
      <point x="191" y="514" type="line"/>
      <point x="191" y="666" type="line"/>
    </contour>
  </outline>
</glyph>
<glyph name="y_lower_alt" format="2">
  <advance width="486"/>
  <unicode hex="9998"/>
  <outline>
    <contour>
      <point x="102" y="-209" type="line"/>
      <point x="207" y="40" type="line"/>
      <point x="17" y="500" type="line"/>
      <point x="81" y="500" type="line"/>
      <point x="237" y="109" type="line"/>
      <point x="402" y="500" type="line"/>
      <point x="465" y="500" type="line"/>
      <point x="160" y="-209" type="line"/>
    </contour>
  </outline>
</glyph>
<glyph name="ffl" format="2">
  <advance width="598"/>
  <unicode hex="FB04"/>
  <outline>
    <contour>
      <point x="500" y="629" type="line"/>
      <point x="446" y="656"/>
      <point x="406" y="653"/>
      <point x="379" y="638" type="curve" smooth="yes"/>
      <point x="346" y="620"/>
      <point x="329" y="593"/>
      <point x="329" y="557" type="curve" smooth="yes"/>
      <point x="329" y="500" type="line"/>
      <point x="443" y="500" type="line"/>
      <point x="419" y="447" type="line"/>
      <point x="329" y="447" type="line"/>
      <point x="329" y="0" type="line"/>
      <point x="269" y="0" type="line"/>
      <point x="269" y="561" type="line" smooth="yes"/>
      <point x="269" y="582"/>
      <point x="276" y="601"/>
      <point x="284" y="620" type="curve"/>
      <point x="254" y="639"/>
      <point x="227" y="649"/>
      <point x="202" y="652" type="curve" smooth="yes"/>
      <point x="140" y="659"/>
      <point x="96" y="629"/>
      <point x="96" y="550" type="curve" smooth="yes"/>
      <point x="96" y="500" type="line"/>
      <point x="210" y="500" type="line"/>
      <point x="187" y="447" type="line"/>
      <point x="96" y="447" type="line"/>
      <point x="96" y="0" type="line"/>
      <point x="39" y="0" type="line"/>
      <point x="39" y="561" type="line" smooth="yes"/>
      <point x="39" y="671"/>
      <point x="132" y="706"/>
      <point x="182" y="706" type="curve" smooth="yes"/>
      <point x="230" y="706"/>
      <point x="276" y="692"/>
      <point x="314" y="664" type="curve"/>
      <point x="341" y="691"/>
      <point x="380" y="705"/>
      <point x="428" y="705" type="curve" smooth="yes"/>
      <point x="477" y="705"/>
      <point x="516" y="693"/>
      <point x="556" y="666" type="curve"/>
      <point x="556" y="0" type="line"/>
      <point x="500" y="0" type="line"/>
    </contour>
  </outline>
</glyph>
<glyph name="commaturnedabove" format="2">
  <advance width="267"/>
  <outline>
    <contour>
      <point x="169" y="718" type="line"/>
      <point x="147" y="693"/>
      <point x="141" y="665"/>
      <point x="139" y="643" type="curve"/>
      <point x="153" y="641"/>
      <point x="166" y="628"/>
      <point x="166" y="610" type="curve" smooth="yes"/>
      <point x="166" y="592"/>
      <point x="151" y="577"/>
      <point x="133" y="577" type="curve" smooth="yes"/>
      <point x="114" y="577"/>
      <point x="99" y="590"/>
      <point x="99" y="610" type="curve" smooth="yes"/>
      <point x="99" y="672"/>
      <point x="133" y="714"/>
      <point x="152" y="730" type="curve"/>
    </contour>
  </outline>
</glyph>
<glyph name="ft" format="1">
  <advance width="471" height="962"/>
  <outline>
    <contour>
      <point x="325" y="133" type="line" smooth="yes"/>
      <point x="325" y="79"/>
      <point x="347" y="45"/>
      <point x="391" y="30" type="curve"/>
      <point x="375" y="-13" type="line"/>
      <point x="301" y="9"/>
      <point x="270" y="54"/>
      <point x="270" y="133" type="curve" smooth="yes"/>
      <point x="270" y="623" type="line"/>
      <point x="239" y="645"/>
      <point x="210" y="648"/>
      <point x="189" y="648" type="curve" smooth="yes"/>
      <point x="140" y="648"/>
      <point x="98" y="620"/>
      <point x="98" y="550" type="curve" smooth="yes"/>
      <point x="98" y="500" type="line"/>
      <point x="211" y="500" type="line"/>
      <point x="187" y="447" type="line"/>
      <point x="98" y="447" type="line"/>
      <point x="98" y="0" type="line"/>
      <point x="41" y="0" type="line"/>
      <point x="41" y="562" type="line" smooth="yes"/>
      <point x="41" y="650"/>
      <point x="108" y="706"/>
      <point x="192" y="706" type="curve" smooth="yes"/>
      <point x="236" y="706"/>
      <point x="284" y="691"/>
      <point x="326" y="656" type="curve"/>
      <point x="326" y="500" type="line"/>
      <point x="445" y="500" type="line"/>
      <point x="422" y="447" type="line"/>
      <point x="325" y="447" type="line"/>
    </contour>
  </outline>
</glyph>
<glyph name="sigma_tau" format="2">
  <advance width="796"/>
  <outline>
    <contour>
      <point x="641" y="432" type="line"/>
      <point x="695" y="434"/>
      <point x="748" y="438"/>
      <point x="794" y="447" type="curve"/>
      <point x="794" y="501" type="line"/>
      <point x="629" y="480"/>
      <point x="485" y="487"/>
      <point x="336" y="503" type="curve" smooth="yes"/>
      <point x="308" y="506"/>
      <point x="263" y="512"/>
      <point x="215" y="512" type="curve" smooth="yes"/>
      <point x="129" y="512"/>
      <point x="28" y="472"/>
      <point x="28" y="320" type="curve" smooth="yes"/>
      <point x="28" y="185" type="line" smooth="yes"/>
      <point x="28" y="77"/>
      <point x="92" y="-10"/>
      <point x="217" y="-10" type="curve" smooth="yes"/>
      <point x="338" y="-10"/>
      <point x="398" y="68"/>
      <point x="398" y="185" type="curve" smooth="yes"/>
      <point x="398" y="320" type="line" smooth="yes"/>
      <point x="398" y="394"/>
      <point x="381" y="427"/>
      <point x="363" y="447" type="curve"/>
      <point x="414" y="439"/>
      <point x="498" y="432"/>
      <point x="585" y="432" type="curve"/>
      <point x="585" y="133" type="line" smooth="yes"/>
      <point x="585" y="54"/>
      <point x="617" y="9"/>
      <point x="691" y="-13" type="curve"/>
      <point x="707" y="30" type="line"/>
      <point x="664" y="46"/>
      <point x="641" y="79"/>
      <point x="641" y="133" type="curve" smooth="yes"/>
    </contour>
    <contour>
      <point x="307" y="452" type="curve"/>
      <point x="323" y="435"/>
      <point x="341" y="396"/>
      <point x="341" y="334" type="curve" smooth="yes"/>
      <point x="341" y="175" type="line" smooth="yes"/>
      <point x="341" y="93"/>
      <point x="302" y="40"/>
      <point x="218" y="40" type="curve" smooth="yes"/>
      <point x="138" y="40"/>
      <point x="87" y="95"/>
      <point x="87" y="175" type="curve" smooth="yes"/>
      <point x="87" y="327" type="line" smooth="yes"/>
      <point x="87" y="429"/>
      <point x="157" y="459"/>
      <point x="215" y="459" type="curve" smooth="yes"/>
      <point x="245" y="459"/>
      <point x="279" y="454"/>
    </contour>
  </outline>
</glyph>
